<?xml version="1.0" standalone="no"?>
 <!DOCTYPE svg PUBLIC "-//W3C//DTD SVG 1.1//EN" 
 "http://www.w3.org/Graphics/SVG/1.1/DTD/svg11.dtd"> 
<svg
  xmlns:svg="http://www.w3.org/2000/svg"
  xmlns="http://www.w3.org/2000/svg"
  xmlns:xlink="http://www.w3.org/1999/xlink"
  version="1.1"
  width="297.0022mm" height="210.0072mm" viewBox="0.0000 0.0000 297.0022 210.0072">
<title>SVG Image created as midi-viscount-rte0616-B_Silkscreen.svg date 2024/06/23 22:58:11 </title>
  <desc>Image generated by PCBNEW </desc>
<g style="fill:#000000; fill-opacity:1.0000;stroke:#000000; stroke-opacity:1.0000;
stroke-linecap:round; stroke-linejoin:round;"
 transform="translate(0 0) scale(1 1)">
</g>
<g style="fill:none; 
stroke:#000000; stroke-width:0.1000; stroke-opacity:1; 
stroke-linecap:round; stroke-linejoin:round;">
<text x="86.9000" y="84.4000"
transform="scale(-1 1) translate(-173.800000 0)"
textLength="34.8143" font-size="1.3333" lengthAdjust="spacingAndGlyphs"
text-anchor="start" opacity="0">github.com/gwilherm/midi-viscount-rte0616</text>
<g class="stroked-text"><desc>github.com/gwilherm/midi-viscount-rte0616</desc>
<path d="M86.1675 83.6058
L86.1675 84.4153
" />
<path d="M86.1675 84.4153
L86.2152 84.5105
" />
<path d="M86.2152 84.5105
L86.2628 84.5581
" />
<path d="M86.2628 84.5581
L86.3580 84.6058
" />
<path d="M86.3580 84.6058
L86.5009 84.6058
" />
<path d="M86.5009 84.6058
L86.5961 84.5581
" />
<path d="M86.1675 84.2248
L86.2628 84.2724
" />
<path d="M86.2628 84.2724
L86.4533 84.2724
" />
<path d="M86.4533 84.2724
L86.5485 84.2248
" />
<path d="M86.5485 84.2248
L86.5961 84.1772
" />
<path d="M86.5961 84.1772
L86.6437 84.0819
" />
<path d="M86.6437 84.0819
L86.6437 83.7962
" />
<path d="M86.6437 83.7962
L86.5961 83.7010
" />
<path d="M86.5961 83.7010
L86.5485 83.6534
" />
<path d="M86.5485 83.6534
L86.4533 83.6058
" />
<path d="M86.4533 83.6058
L86.2628 83.6058
" />
<path d="M86.2628 83.6058
L86.1675 83.6534
" />
<path d="M85.6914 84.2724
L85.6914 83.6058
" />
<path d="M85.6914 83.2724
L85.7390 83.3200
" />
<path d="M85.7390 83.3200
L85.6914 83.3677
" />
<path d="M85.6914 83.3677
L85.6437 83.3200
" />
<path d="M85.6437 83.3200
L85.6914 83.2724
" />
<path d="M85.6914 83.2724
L85.6914 83.3677
" />
<path d="M85.3580 83.6058
L84.9771 83.6058
" />
<path d="M85.2152 83.2724
L85.2152 84.1296
" />
<path d="M85.2152 84.1296
L85.1675 84.2248
" />
<path d="M85.1675 84.2248
L85.0723 84.2724
" />
<path d="M85.0723 84.2724
L84.9771 84.2724
" />
<path d="M84.6437 84.2724
L84.6437 83.2724
" />
<path d="M84.2152 84.2724
L84.2152 83.7486
" />
<path d="M84.2152 83.7486
L84.2628 83.6534
" />
<path d="M84.2628 83.6534
L84.3580 83.6058
" />
<path d="M84.3580 83.6058
L84.5009 83.6058
" />
<path d="M84.5009 83.6058
L84.5961 83.6534
" />
<path d="M84.5961 83.6534
L84.6437 83.7010
" />
<path d="M83.3104 83.6058
L83.3104 84.2724
" />
<path d="M83.7390 83.6058
L83.7390 84.1296
" />
<path d="M83.7390 84.1296
L83.6914 84.2248
" />
<path d="M83.6914 84.2248
L83.5961 84.2724
" />
<path d="M83.5961 84.2724
L83.4533 84.2724
" />
<path d="M83.4533 84.2724
L83.3580 84.2248
" />
<path d="M83.3580 84.2248
L83.3104 84.1772
" />
<path d="M82.8342 84.2724
L82.8342 83.2724
" />
<path d="M82.8342 83.6534
L82.7390 83.6058
" />
<path d="M82.7390 83.6058
L82.5485 83.6058
" />
<path d="M82.5485 83.6058
L82.4533 83.6534
" />
<path d="M82.4533 83.6534
L82.4056 83.7010
" />
<path d="M82.4056 83.7010
L82.3580 83.7962
" />
<path d="M82.3580 83.7962
L82.3580 84.0819
" />
<path d="M82.3580 84.0819
L82.4056 84.1772
" />
<path d="M82.4056 84.1772
L82.4533 84.2248
" />
<path d="M82.4533 84.2248
L82.5485 84.2724
" />
<path d="M82.5485 84.2724
L82.7390 84.2724
" />
<path d="M82.7390 84.2724
L82.8342 84.2248
" />
<path d="M81.9294 84.1772
L81.8818 84.2248
" />
<path d="M81.8818 84.2248
L81.9294 84.2724
" />
<path d="M81.9294 84.2724
L81.9771 84.2248
" />
<path d="M81.9771 84.2248
L81.9294 84.1772
" />
<path d="M81.9294 84.1772
L81.9294 84.2724
" />
<path d="M81.0247 84.2248
L81.1199 84.2724
" />
<path d="M81.1199 84.2724
L81.3104 84.2724
" />
<path d="M81.3104 84.2724
L81.4056 84.2248
" />
<path d="M81.4056 84.2248
L81.4533 84.1772
" />
<path d="M81.4533 84.1772
L81.5009 84.0819
" />
<path d="M81.5009 84.0819
L81.5009 83.7962
" />
<path d="M81.5009 83.7962
L81.4533 83.7010
" />
<path d="M81.4533 83.7010
L81.4056 83.6534
" />
<path d="M81.4056 83.6534
L81.3104 83.6058
" />
<path d="M81.3104 83.6058
L81.1199 83.6058
" />
<path d="M81.1199 83.6058
L81.0247 83.6534
" />
<path d="M80.4533 84.2724
L80.5485 84.2248
" />
<path d="M80.5485 84.2248
L80.5961 84.1772
" />
<path d="M80.5961 84.1772
L80.6437 84.0819
" />
<path d="M80.6437 84.0819
L80.6437 83.7962
" />
<path d="M80.6437 83.7962
L80.5961 83.7010
" />
<path d="M80.5961 83.7010
L80.5485 83.6534
" />
<path d="M80.5485 83.6534
L80.4533 83.6058
" />
<path d="M80.4533 83.6058
L80.3104 83.6058
" />
<path d="M80.3104 83.6058
L80.2152 83.6534
" />
<path d="M80.2152 83.6534
L80.1675 83.7010
" />
<path d="M80.1675 83.7010
L80.1199 83.7962
" />
<path d="M80.1199 83.7962
L80.1199 84.0819
" />
<path d="M80.1199 84.0819
L80.1675 84.1772
" />
<path d="M80.1675 84.1772
L80.2152 84.2248
" />
<path d="M80.2152 84.2248
L80.3104 84.2724
" />
<path d="M80.3104 84.2724
L80.4533 84.2724
" />
<path d="M79.6914 84.2724
L79.6914 83.6058
" />
<path d="M79.6914 83.7010
L79.6437 83.6534
" />
<path d="M79.6437 83.6534
L79.5485 83.6058
" />
<path d="M79.5485 83.6058
L79.4056 83.6058
" />
<path d="M79.4056 83.6058
L79.3104 83.6534
" />
<path d="M79.3104 83.6534
L79.2628 83.7486
" />
<path d="M79.2628 83.7486
L79.2628 84.2724
" />
<path d="M79.2628 83.7486
L79.2152 83.6534
" />
<path d="M79.2152 83.6534
L79.1199 83.6058
" />
<path d="M79.1199 83.6058
L78.9771 83.6058
" />
<path d="M78.9771 83.6058
L78.8818 83.6534
" />
<path d="M78.8818 83.6534
L78.8342 83.7486
" />
<path d="M78.8342 83.7486
L78.8342 84.2724
" />
<path d="M77.6437 83.2248
L78.5009 84.5105
" />
<path d="M76.8818 83.6058
L76.8818 84.4153
" />
<path d="M76.8818 84.4153
L76.9294 84.5105
" />
<path d="M76.9294 84.5105
L76.9771 84.5581
" />
<path d="M76.9771 84.5581
L77.0723 84.6058
" />
<path d="M77.0723 84.6058
L77.2152 84.6058
" />
<path d="M77.2152 84.6058
L77.3104 84.5581
" />
<path d="M76.8818 84.2248
L76.9771 84.2724
" />
<path d="M76.9771 84.2724
L77.1675 84.2724
" />
<path d="M77.1675 84.2724
L77.2628 84.2248
" />
<path d="M77.2628 84.2248
L77.3104 84.1772
" />
<path d="M77.3104 84.1772
L77.3580 84.0819
" />
<path d="M77.3580 84.0819
L77.3580 83.7962
" />
<path d="M77.3580 83.7962
L77.3104 83.7010
" />
<path d="M77.3104 83.7010
L77.2628 83.6534
" />
<path d="M77.2628 83.6534
L77.1675 83.6058
" />
<path d="M77.1675 83.6058
L76.9771 83.6058
" />
<path d="M76.9771 83.6058
L76.8818 83.6534
" />
<path d="M76.5009 83.6058
L76.3104 84.2724
" />
<path d="M76.3104 84.2724
L76.1199 83.7962
" />
<path d="M76.1199 83.7962
L75.9294 84.2724
" />
<path d="M75.9294 84.2724
L75.7390 83.6058
" />
<path d="M75.3580 84.2724
L75.3580 83.6058
" />
<path d="M75.3580 83.2724
L75.4056 83.3200
" />
<path d="M75.4056 83.3200
L75.3580 83.3677
" />
<path d="M75.3580 83.3677
L75.3104 83.3200
" />
<path d="M75.3104 83.3200
L75.3580 83.2724
" />
<path d="M75.3580 83.2724
L75.3580 83.3677
" />
<path d="M74.7390 84.2724
L74.8342 84.2248
" />
<path d="M74.8342 84.2248
L74.8818 84.1296
" />
<path d="M74.8818 84.1296
L74.8818 83.2724
" />
<path d="M74.3580 84.2724
L74.3580 83.2724
" />
<path d="M73.9294 84.2724
L73.9294 83.7486
" />
<path d="M73.9294 83.7486
L73.9771 83.6534
" />
<path d="M73.9771 83.6534
L74.0723 83.6058
" />
<path d="M74.0723 83.6058
L74.2152 83.6058
" />
<path d="M74.2152 83.6058
L74.3104 83.6534
" />
<path d="M74.3104 83.6534
L74.3580 83.7010
" />
<path d="M73.0723 84.2248
L73.1675 84.2724
" />
<path d="M73.1675 84.2724
L73.3580 84.2724
" />
<path d="M73.3580 84.2724
L73.4533 84.2248
" />
<path d="M73.4533 84.2248
L73.5009 84.1296
" />
<path d="M73.5009 84.1296
L73.5009 83.7486
" />
<path d="M73.5009 83.7486
L73.4533 83.6534
" />
<path d="M73.4533 83.6534
L73.3580 83.6058
" />
<path d="M73.3580 83.6058
L73.1675 83.6058
" />
<path d="M73.1675 83.6058
L73.0723 83.6534
" />
<path d="M73.0723 83.6534
L73.0247 83.7486
" />
<path d="M73.0247 83.7486
L73.0247 83.8438
" />
<path d="M73.0247 83.8438
L73.5009 83.9391
" />
<path d="M72.5961 84.2724
L72.5961 83.6058
" />
<path d="M72.5961 83.7962
L72.5485 83.7010
" />
<path d="M72.5485 83.7010
L72.5009 83.6534
" />
<path d="M72.5009 83.6534
L72.4056 83.6058
" />
<path d="M72.4056 83.6058
L72.3104 83.6058
" />
<path d="M71.9771 84.2724
L71.9771 83.6058
" />
<path d="M71.9771 83.7010
L71.9294 83.6534
" />
<path d="M71.9294 83.6534
L71.8342 83.6058
" />
<path d="M71.8342 83.6058
L71.6914 83.6058
" />
<path d="M71.6914 83.6058
L71.5961 83.6534
" />
<path d="M71.5961 83.6534
L71.5485 83.7486
" />
<path d="M71.5485 83.7486
L71.5485 84.2724
" />
<path d="M71.5485 83.7486
L71.5009 83.6534
" />
<path d="M71.5009 83.6534
L71.4056 83.6058
" />
<path d="M71.4056 83.6058
L71.2628 83.6058
" />
<path d="M71.2628 83.6058
L71.1675 83.6534
" />
<path d="M71.1675 83.6534
L71.1199 83.7486
" />
<path d="M71.1199 83.7486
L71.1199 84.2724
" />
<path d="M69.9294 83.2248
L70.7866 84.5105
" />
<path d="M69.5961 84.2724
L69.5961 83.6058
" />
<path d="M69.5961 83.7010
L69.5485 83.6534
" />
<path d="M69.5485 83.6534
L69.4533 83.6058
" />
<path d="M69.4533 83.6058
L69.3104 83.6058
" />
<path d="M69.3104 83.6058
L69.2152 83.6534
" />
<path d="M69.2152 83.6534
L69.1675 83.7486
" />
<path d="M69.1675 83.7486
L69.1675 84.2724
" />
<path d="M69.1675 83.7486
L69.1199 83.6534
" />
<path d="M69.1199 83.6534
L69.0247 83.6058
" />
<path d="M69.0247 83.6058
L68.8818 83.6058
" />
<path d="M68.8818 83.6058
L68.7866 83.6534
" />
<path d="M68.7866 83.6534
L68.7390 83.7486
" />
<path d="M68.7390 83.7486
L68.7390 84.2724
" />
<path d="M68.2628 84.2724
L68.2628 83.6058
" />
<path d="M68.2628 83.2724
L68.3104 83.3200
" />
<path d="M68.3104 83.3200
L68.2628 83.3677
" />
<path d="M68.2628 83.3677
L68.2152 83.3200
" />
<path d="M68.2152 83.3200
L68.2628 83.2724
" />
<path d="M68.2628 83.2724
L68.2628 83.3677
" />
<path d="M67.3580 84.2724
L67.3580 83.2724
" />
<path d="M67.3580 84.2248
L67.4533 84.2724
" />
<path d="M67.4533 84.2724
L67.6437 84.2724
" />
<path d="M67.6437 84.2724
L67.7390 84.2248
" />
<path d="M67.7390 84.2248
L67.7866 84.1772
" />
<path d="M67.7866 84.1772
L67.8342 84.0819
" />
<path d="M67.8342 84.0819
L67.8342 83.7962
" />
<path d="M67.8342 83.7962
L67.7866 83.7010
" />
<path d="M67.7866 83.7010
L67.7390 83.6534
" />
<path d="M67.7390 83.6534
L67.6437 83.6058
" />
<path d="M67.6437 83.6058
L67.4533 83.6058
" />
<path d="M67.4533 83.6058
L67.3580 83.6534
" />
<path d="M66.8818 84.2724
L66.8818 83.6058
" />
<path d="M66.8818 83.2724
L66.9294 83.3200
" />
<path d="M66.9294 83.3200
L66.8818 83.3677
" />
<path d="M66.8818 83.3677
L66.8342 83.3200
" />
<path d="M66.8342 83.3200
L66.8818 83.2724
" />
<path d="M66.8818 83.2724
L66.8818 83.3677
" />
<path d="M66.4056 83.8915
L65.6437 83.8915
" />
<path d="M65.2628 83.6058
L65.0247 84.2724
" />
<path d="M65.0247 84.2724
L64.7866 83.6058
" />
<path d="M64.4056 84.2724
L64.4056 83.6058
" />
<path d="M64.4056 83.2724
L64.4533 83.3200
" />
<path d="M64.4533 83.3200
L64.4056 83.3677
" />
<path d="M64.4056 83.3677
L64.3580 83.3200
" />
<path d="M64.3580 83.3200
L64.4056 83.2724
" />
<path d="M64.4056 83.2724
L64.4056 83.3677
" />
<path d="M63.9771 84.2248
L63.8818 84.2724
" />
<path d="M63.8818 84.2724
L63.6914 84.2724
" />
<path d="M63.6914 84.2724
L63.5961 84.2248
" />
<path d="M63.5961 84.2248
L63.5485 84.1296
" />
<path d="M63.5485 84.1296
L63.5485 84.0819
" />
<path d="M63.5485 84.0819
L63.5961 83.9867
" />
<path d="M63.5961 83.9867
L63.6914 83.9391
" />
<path d="M63.6914 83.9391
L63.8342 83.9391
" />
<path d="M63.8342 83.9391
L63.9294 83.8915
" />
<path d="M63.9294 83.8915
L63.9771 83.7962
" />
<path d="M63.9771 83.7962
L63.9771 83.7486
" />
<path d="M63.9771 83.7486
L63.9294 83.6534
" />
<path d="M63.9294 83.6534
L63.8342 83.6058
" />
<path d="M63.8342 83.6058
L63.6914 83.6058
" />
<path d="M63.6914 83.6058
L63.5961 83.6534
" />
<path d="M62.6914 84.2248
L62.7866 84.2724
" />
<path d="M62.7866 84.2724
L62.9771 84.2724
" />
<path d="M62.9771 84.2724
L63.0723 84.2248
" />
<path d="M63.0723 84.2248
L63.1199 84.1772
" />
<path d="M63.1199 84.1772
L63.1675 84.0819
" />
<path d="M63.1675 84.0819
L63.1675 83.7962
" />
<path d="M63.1675 83.7962
L63.1199 83.7010
" />
<path d="M63.1199 83.7010
L63.0723 83.6534
" />
<path d="M63.0723 83.6534
L62.9771 83.6058
" />
<path d="M62.9771 83.6058
L62.7866 83.6058
" />
<path d="M62.7866 83.6058
L62.6914 83.6534
" />
<path d="M62.1199 84.2724
L62.2152 84.2248
" />
<path d="M62.2152 84.2248
L62.2628 84.1772
" />
<path d="M62.2628 84.1772
L62.3104 84.0819
" />
<path d="M62.3104 84.0819
L62.3104 83.7962
" />
<path d="M62.3104 83.7962
L62.2628 83.7010
" />
<path d="M62.2628 83.7010
L62.2152 83.6534
" />
<path d="M62.2152 83.6534
L62.1199 83.6058
" />
<path d="M62.1199 83.6058
L61.9771 83.6058
" />
<path d="M61.9771 83.6058
L61.8818 83.6534
" />
<path d="M61.8818 83.6534
L61.8342 83.7010
" />
<path d="M61.8342 83.7010
L61.7866 83.7962
" />
<path d="M61.7866 83.7962
L61.7866 84.0819
" />
<path d="M61.7866 84.0819
L61.8342 84.1772
" />
<path d="M61.8342 84.1772
L61.8818 84.2248
" />
<path d="M61.8818 84.2248
L61.9771 84.2724
" />
<path d="M61.9771 84.2724
L62.1199 84.2724
" />
<path d="M60.9294 83.6058
L60.9294 84.2724
" />
<path d="M61.3580 83.6058
L61.3580 84.1296
" />
<path d="M61.3580 84.1296
L61.3104 84.2248
" />
<path d="M61.3104 84.2248
L61.2152 84.2724
" />
<path d="M61.2152 84.2724
L61.0723 84.2724
" />
<path d="M61.0723 84.2724
L60.9771 84.2248
" />
<path d="M60.9771 84.2248
L60.9294 84.1772
" />
<path d="M60.4533 83.6058
L60.4533 84.2724
" />
<path d="M60.4533 83.7010
L60.4056 83.6534
" />
<path d="M60.4056 83.6534
L60.3104 83.6058
" />
<path d="M60.3104 83.6058
L60.1675 83.6058
" />
<path d="M60.1675 83.6058
L60.0723 83.6534
" />
<path d="M60.0723 83.6534
L60.0247 83.7486
" />
<path d="M60.0247 83.7486
L60.0247 84.2724
" />
<path d="M59.6914 83.6058
L59.3104 83.6058
" />
<path d="M59.5485 83.2724
L59.5485 84.1296
" />
<path d="M59.5485 84.1296
L59.5009 84.2248
" />
<path d="M59.5009 84.2248
L59.4056 84.2724
" />
<path d="M59.4056 84.2724
L59.3104 84.2724
" />
<path d="M58.9771 83.8915
L58.2152 83.8915
" />
<path d="M57.7390 84.2724
L57.7390 83.6058
" />
<path d="M57.7390 83.7962
L57.6914 83.7010
" />
<path d="M57.6914 83.7010
L57.6437 83.6534
" />
<path d="M57.6437 83.6534
L57.5485 83.6058
" />
<path d="M57.5485 83.6058
L57.4533 83.6058
" />
<path d="M57.2628 83.6058
L56.8818 83.6058
" />
<path d="M57.1199 83.2724
L57.1199 84.1296
" />
<path d="M57.1199 84.1296
L57.0723 84.2248
" />
<path d="M57.0723 84.2248
L56.9771 84.2724
" />
<path d="M56.9771 84.2724
L56.8818 84.2724
" />
<path d="M56.1675 84.2248
L56.2628 84.2724
" />
<path d="M56.2628 84.2724
L56.4533 84.2724
" />
<path d="M56.4533 84.2724
L56.5485 84.2248
" />
<path d="M56.5485 84.2248
L56.5961 84.1296
" />
<path d="M56.5961 84.1296
L56.5961 83.7486
" />
<path d="M56.5961 83.7486
L56.5485 83.6534
" />
<path d="M56.5485 83.6534
L56.4533 83.6058
" />
<path d="M56.4533 83.6058
L56.2628 83.6058
" />
<path d="M56.2628 83.6058
L56.1675 83.6534
" />
<path d="M56.1675 83.6534
L56.1199 83.7486
" />
<path d="M56.1199 83.7486
L56.1199 83.8438
" />
<path d="M56.1199 83.8438
L56.5961 83.9391
" />
<path d="M55.5009 83.2724
L55.4056 83.2724
" />
<path d="M55.4056 83.2724
L55.3104 83.3200
" />
<path d="M55.3104 83.3200
L55.2628 83.3677
" />
<path d="M55.2628 83.3677
L55.2152 83.4629
" />
<path d="M55.2152 83.4629
L55.1675 83.6534
" />
<path d="M55.1675 83.6534
L55.1675 83.8915
" />
<path d="M55.1675 83.8915
L55.2152 84.0819
" />
<path d="M55.2152 84.0819
L55.2628 84.1772
" />
<path d="M55.2628 84.1772
L55.3104 84.2248
" />
<path d="M55.3104 84.2248
L55.4056 84.2724
" />
<path d="M55.4056 84.2724
L55.5009 84.2724
" />
<path d="M55.5009 84.2724
L55.5961 84.2248
" />
<path d="M55.5961 84.2248
L55.6437 84.1772
" />
<path d="M55.6437 84.1772
L55.6914 84.0819
" />
<path d="M55.6914 84.0819
L55.7390 83.8915
" />
<path d="M55.7390 83.8915
L55.7390 83.6534
" />
<path d="M55.7390 83.6534
L55.6914 83.4629
" />
<path d="M55.6914 83.4629
L55.6437 83.3677
" />
<path d="M55.6437 83.3677
L55.5961 83.3200
" />
<path d="M55.5961 83.3200
L55.5009 83.2724
" />
<path d="M54.3104 83.2724
L54.5009 83.2724
" />
<path d="M54.5009 83.2724
L54.5961 83.3200
" />
<path d="M54.5961 83.3200
L54.6437 83.3677
" />
<path d="M54.6437 83.3677
L54.7390 83.5105
" />
<path d="M54.7390 83.5105
L54.7866 83.7010
" />
<path d="M54.7866 83.7010
L54.7866 84.0819
" />
<path d="M54.7866 84.0819
L54.7390 84.1772
" />
<path d="M54.7390 84.1772
L54.6914 84.2248
" />
<path d="M54.6914 84.2248
L54.5961 84.2724
" />
<path d="M54.5961 84.2724
L54.4056 84.2724
" />
<path d="M54.4056 84.2724
L54.3104 84.2248
" />
<path d="M54.3104 84.2248
L54.2628 84.1772
" />
<path d="M54.2628 84.1772
L54.2152 84.0819
" />
<path d="M54.2152 84.0819
L54.2152 83.8438
" />
<path d="M54.2152 83.8438
L54.2628 83.7486
" />
<path d="M54.2628 83.7486
L54.3104 83.7010
" />
<path d="M54.3104 83.7010
L54.4056 83.6534
" />
<path d="M54.4056 83.6534
L54.5961 83.6534
" />
<path d="M54.5961 83.6534
L54.6914 83.7010
" />
<path d="M54.6914 83.7010
L54.7390 83.7486
" />
<path d="M54.7390 83.7486
L54.7866 83.8438
" />
<path d="M53.2628 84.2724
L53.8342 84.2724
" />
<path d="M53.5485 84.2724
L53.5485 83.2724
" />
<path d="M53.5485 83.2724
L53.6437 83.4153
" />
<path d="M53.6437 83.4153
L53.7390 83.5105
" />
<path d="M53.7390 83.5105
L53.8342 83.5581
" />
<path d="M52.4056 83.2724
L52.5961 83.2724
" />
<path d="M52.5961 83.2724
L52.6914 83.3200
" />
<path d="M52.6914 83.3200
L52.7390 83.3677
" />
<path d="M52.7390 83.3677
L52.8342 83.5105
" />
<path d="M52.8342 83.5105
L52.8818 83.7010
" />
<path d="M52.8818 83.7010
L52.8818 84.0819
" />
<path d="M52.8818 84.0819
L52.8342 84.1772
" />
<path d="M52.8342 84.1772
L52.7866 84.2248
" />
<path d="M52.7866 84.2248
L52.6914 84.2724
" />
<path d="M52.6914 84.2724
L52.5009 84.2724
" />
<path d="M52.5009 84.2724
L52.4056 84.2248
" />
<path d="M52.4056 84.2248
L52.3580 84.1772
" />
<path d="M52.3580 84.1772
L52.3104 84.0819
" />
<path d="M52.3104 84.0819
L52.3104 83.8438
" />
<path d="M52.3104 83.8438
L52.3580 83.7486
" />
<path d="M52.3580 83.7486
L52.4056 83.7010
" />
<path d="M52.4056 83.7010
L52.5009 83.6534
" />
<path d="M52.5009 83.6534
L52.6914 83.6534
" />
<path d="M52.6914 83.6534
L52.7866 83.7010
" />
<path d="M52.7866 83.7010
L52.8342 83.7486
" />
<path d="M52.8342 83.7486
L52.8818 83.8438
" />
</g></g>
<g style="fill:none; 
stroke:#000000; stroke-width:0.1500; stroke-opacity:1; 
stroke-linecap:round; stroke-linejoin:round;">
<path d="M105.2700 50.3900
L135.7500 50.3900
" />
<path d="M105.2700 68.1700
L105.2700 50.3900
" />
<path d="M135.7500 50.3900
L135.7500 55.4700
" />
<path d="M135.7500 55.4700
L138.2900 55.4700
" />
<path d="M135.7500 63.0900
L135.7500 68.1700
" />
<path d="M135.7500 68.1700
L105.2700 68.1700
" />
<path d="M138.2900 55.4700
L138.2900 63.0900
" />
<path d="M138.2900 63.0900
L135.7500 63.0900
" />
</g> 
</svg>
