<?xml version="1.0" standalone="no"?>
 <!DOCTYPE svg PUBLIC "-//W3C//DTD SVG 1.1//EN" 
 "http://www.w3.org/Graphics/SVG/1.1/DTD/svg11.dtd"> 
<svg
  xmlns:svg="http://www.w3.org/2000/svg"
  xmlns="http://www.w3.org/2000/svg"
  xmlns:xlink="http://www.w3.org/1999/xlink"
  version="1.1"
  width="297.0022mm" height="210.0072mm" viewBox="0.0000 0.0000 297.0022 210.0072">
<title>SVG Image created as midi-viscount-rte0616-F_Cu.svg date 2024/06/23 22:58:11 </title>
  <desc>Image generated by PCBNEW </desc>
<g style="fill:#000000; fill-opacity:1.0000;stroke:#000000; stroke-opacity:1.0000;
stroke-linecap:round; stroke-linejoin:round;"
 transform="translate(0 0) scale(1 1)">
<path style="fill:#000000; fill-opacity:1.0000; stroke:none;fill-rule:evenodd;"
d="M 123.6500,44.8500
123.6500,46.5500
121.9500,46.5500
121.9500,44.8500
Z" /> 
<path style="fill:#000000; fill-opacity:1.0000; stroke:none;fill-rule:evenodd;"
d="M 89.5000,65.0500
89.5000,66.7500
87.8000,66.7500
87.8000,65.0500
Z" /> 
<path style="fill:#000000; fill-opacity:1.0000; stroke:none;fill-rule:evenodd;"
d="M 89.4500,71.6500
89.4500,73.3500
87.7500,73.3500
87.7500,71.6500
Z" /> 
<path style="fill:#000000; fill-opacity:1.0000; stroke:none;fill-rule:evenodd;"
d="M 94.1500,71.5500
94.1500,73.2500
92.4500,73.2500
92.4500,71.5500
Z" /> 
<path style="fill:#000000; fill-opacity:1.0000; stroke:none;fill-rule:evenodd;"
d="M 84.7500,71.5500
84.7500,73.2500
83.0500,73.2500
83.0500,71.5500
Z" /> 
<path style="fill:#000000; fill-opacity:1.0000; stroke:none;fill-rule:evenodd;"
d="M 84.8000,65.0500
84.8000,66.7500
83.1000,66.7500
83.1000,65.0500
Z" /> 
<path style="fill:#000000; fill-opacity:1.0000; stroke:none;fill-rule:evenodd;"
d="M 123.6500,40.6500
123.6500,42.3500
121.9500,42.3500
121.9500,40.6500
Z" /> 
<path style="fill:#000000; fill-opacity:1.0000; stroke:none;fill-rule:evenodd;"
d="M 135.2800,50.8600
135.2800,52.4600
133.6800,52.4600
133.6800,50.8600
Z" /> 
</g>
<g style="fill:#000000; fill-opacity:1.0000; stroke:none;">
<circle cx="131.9400" cy="51.6600" r="0.8000" /> 
</g>
<g style="fill:#000000; fill-opacity:1.0000; stroke:none;">
<circle cx="129.4000" cy="51.6600" r="0.8000" /> 
</g>
<g style="fill:#000000; fill-opacity:1.0000; stroke:none;">
<circle cx="126.8600" cy="51.6600" r="0.8000" /> 
</g>
<g style="fill:#000000; fill-opacity:1.0000; stroke:none;">
<circle cx="124.3200" cy="51.6600" r="0.8000" /> 
</g>
<g style="fill:#000000; fill-opacity:1.0000; stroke:none;">
<circle cx="121.7800" cy="51.6600" r="0.8000" /> 
</g>
<g style="fill:#000000; fill-opacity:1.0000; stroke:none;">
<circle cx="119.2400" cy="51.6600" r="0.8000" /> 
</g>
<g style="fill:#000000; fill-opacity:1.0000; stroke:none;">
<circle cx="116.7000" cy="51.6600" r="0.8000" /> 
</g>
<g style="fill:#000000; fill-opacity:1.0000; stroke:none;">
<circle cx="114.1600" cy="51.6600" r="0.8000" /> 
</g>
<g style="fill:#000000; fill-opacity:1.0000; stroke:none;">
<circle cx="111.6200" cy="51.6600" r="0.8000" /> 
</g>
<g style="fill:#000000; fill-opacity:1.0000; stroke:none;">
<circle cx="109.0800" cy="51.6600" r="0.8000" /> 
</g>
<g style="fill:#000000; fill-opacity:1.0000; stroke:none;">
<circle cx="106.5400" cy="51.6600" r="0.8000" /> 
</g>
<g style="fill:#000000; fill-opacity:1.0000; stroke:none;">
<circle cx="106.5400" cy="66.9000" r="0.8000" /> 
</g>
<g style="fill:#000000; fill-opacity:1.0000; stroke:none;">
<circle cx="109.0800" cy="66.9000" r="0.8000" /> 
</g>
<g style="fill:#000000; fill-opacity:1.0000; stroke:none;">
<circle cx="111.6200" cy="66.9000" r="0.8000" /> 
</g>
<g style="fill:#000000; fill-opacity:1.0000; stroke:none;">
<circle cx="114.1600" cy="66.9000" r="0.8000" /> 
</g>
<g style="fill:#000000; fill-opacity:1.0000; stroke:none;">
<circle cx="116.7000" cy="66.9000" r="0.8000" /> 
</g>
<g style="fill:#000000; fill-opacity:1.0000; stroke:none;">
<circle cx="119.2400" cy="66.9000" r="0.8000" /> 
</g>
<g style="fill:#000000; fill-opacity:1.0000; stroke:none;">
<circle cx="121.7800" cy="66.9000" r="0.8000" /> 
</g>
<g style="fill:#000000; fill-opacity:1.0000; stroke:none;">
<circle cx="124.3200" cy="66.9000" r="0.8000" /> 
</g>
<g style="fill:#000000; fill-opacity:1.0000; stroke:none;">
<circle cx="126.8600" cy="66.9000" r="0.8000" /> 
</g>
<g style="fill:#000000; fill-opacity:1.0000; stroke:none;">
<circle cx="129.4000" cy="66.9000" r="0.8000" /> 
</g>
<g style="fill:#000000; fill-opacity:1.0000; stroke:none;">
<circle cx="131.9400" cy="66.9000" r="0.8000" /> 
</g>
<g style="fill:#000000; fill-opacity:1.0000; stroke:none;">
<circle cx="134.4800" cy="66.9000" r="0.8000" /> 
</g>
<g style="fill:#000000; fill-opacity:1.0000; stroke:none;">
<circle cx="71.1000" cy="58.0200" r="0.7200" /> 
</g>
<g style="fill:#000000; fill-opacity:1.0000; stroke:none;">
<circle cx="71.1000" cy="60.5600" r="0.7200" /> 
</g>
<g style="fill:#000000; fill-opacity:1.0000; stroke:none;">
<circle cx="71.1000" cy="63.1000" r="0.7200" /> 
<path style="fill:#000000; fill-opacity:1.0000; stroke:none;fill-rule:evenodd;"
d="M 53.2100,52.2600
53.2290,52.1643
53.2832,52.0832
53.3643,52.0290
53.4600,52.0100
54.6600,52.0100
54.7557,52.0290
54.8368,52.0832
54.8910,52.1643
54.9100,52.2600
54.9100,53.4600
54.8910,53.5557
54.8368,53.6368
54.7557,53.6910
54.6600,53.7100
53.4600,53.7100
53.3643,53.6910
53.2832,53.6368
53.2290,53.5557
53.2100,53.4600
Z" /> 
</g>
<g style="fill:#000000; fill-opacity:1.0000; stroke:none;">
<circle cx="56.6000" cy="52.8600" r="0.8500" /> 
</g>
<g style="fill:#000000; fill-opacity:1.0000; stroke:none;">
<circle cx="54.0600" cy="55.4000" r="0.8500" /> 
</g>
<g style="fill:#000000; fill-opacity:1.0000; stroke:none;">
<circle cx="56.6000" cy="55.4000" r="0.8500" /> 
</g>
<g style="fill:#000000; fill-opacity:1.0000; stroke:none;">
<circle cx="54.0600" cy="57.9400" r="0.8500" /> 
</g>
<g style="fill:#000000; fill-opacity:1.0000; stroke:none;">
<circle cx="56.6000" cy="57.9400" r="0.8500" /> 
</g>
<g style="fill:#000000; fill-opacity:1.0000; stroke:none;">
<circle cx="54.0600" cy="60.4800" r="0.8500" /> 
</g>
<g style="fill:#000000; fill-opacity:1.0000; stroke:none;">
<circle cx="56.6000" cy="60.4800" r="0.8500" /> 
</g>
<g style="fill:#000000; fill-opacity:1.0000; stroke:none;">
<circle cx="54.0600" cy="63.0200" r="0.8500" /> 
</g>
<g style="fill:#000000; fill-opacity:1.0000; stroke:none;">
<circle cx="56.6000" cy="63.0200" r="0.8500" /> 
</g>
<g style="fill:#000000; fill-opacity:1.0000; stroke:none;">
<circle cx="54.0600" cy="65.5600" r="0.8500" /> 
</g>
<g style="fill:#000000; fill-opacity:1.0000; stroke:none;">
<circle cx="56.6000" cy="65.5600" r="0.8500" /> 
</g>
<g style="fill:#000000; fill-opacity:1.0000; stroke:none;">
<circle cx="54.0600" cy="68.1000" r="0.8500" /> 
</g>
<g style="fill:#000000; fill-opacity:1.0000; stroke:none;">
<circle cx="56.6000" cy="68.1000" r="0.8500" /> 
</g>
<g style="fill:#000000; fill-opacity:1.0000; stroke:none;">
<circle cx="78.4000" cy="53.5200" r="0.7200" /> 
</g>
<g style="fill:#000000; fill-opacity:1.0000; stroke:none;">
<circle cx="78.4000" cy="56.0600" r="0.7200" /> 
</g>
<g style="fill:#000000; fill-opacity:1.0000; stroke:none;">
<circle cx="78.4000" cy="58.6000" r="0.7200" /> 
<path style="fill:#000000; fill-opacity:1.0000; stroke:none;fill-rule:evenodd;"
d="M 80.2000,65.0500
80.2000,66.7500
78.5000,66.7500
78.5000,65.0500
Z" /> 
<path style="fill:#000000; fill-opacity:1.0000; stroke:none;fill-rule:evenodd;"
d="M 80.2500,71.5500
80.2500,73.2500
78.5500,73.2500
78.5500,71.5500
Z" /> 
<path style="fill:#000000; fill-opacity:1.0000; stroke:none;fill-rule:evenodd;"
d="M 130.1500,40.6500
130.1500,42.3500
128.4500,42.3500
128.4500,40.6500
Z" /> 
<path style="fill:#000000; fill-opacity:1.0000; stroke:none;fill-rule:evenodd;"
d="M 94.1500,65.0500
94.1500,66.7500
92.4500,66.7500
92.4500,65.0500
Z" /> 
<path style="fill:#000000; fill-opacity:1.0000; stroke:none;fill-rule:evenodd;"
d="M 130.1500,44.8500
130.1500,46.5500
128.4500,46.5500
128.4500,44.8500
Z" /> 
</g>
<g style="fill:#000000; fill-opacity:1.0000; stroke:none;">
<circle cx="85.7000" cy="49.7200" r="0.7200" /> 
</g>
<g style="fill:#000000; fill-opacity:1.0000; stroke:none;">
<circle cx="85.7000" cy="52.2600" r="0.7200" /> 
</g>
<g style="fill:#000000; fill-opacity:1.0000; stroke:none;">
<circle cx="85.7000" cy="54.8000" r="0.7200" /> 
</g>
<g style="fill:none; 
stroke:#000000; stroke-width:2.0000; stroke-opacity:1; 
stroke-linecap:round; stroke-linejoin:round;">
<path d="M126.8200 66.8600
L126.8600 66.9000
" />
<path d="M79.8000 58.6000
L83.6000 54.8000
" />
<path d="M78.4000 58.6000
L77.1000 58.6000
" />
<path d="M78.4000 58.6000
L79.8000 58.6000
" />
<path d="M77.1000 58.6000
L72.6000 63.1000
" />
<path d="M83.6000 54.8000
L121.0000 54.8000
" />
<path d="M72.6000 63.1000
L71.1000 63.1000
" />
<path d="M121.0000 54.8000
L126.8200 60.6200
" />
<path d="M78.3800 58.5800
L78.4000 58.6000
" />
<path d="M126.8200 60.6200
L126.8200 66.8600
" />
<path d="M94.3000 66.9000
L93.3000 65.9000
" />
<path d="M106.5400 66.9000
L94.3000 66.9000
" />
<path d="M89.0000 63.5000
L88.6500 63.8500
" />
<path d="M109.0800 66.9000
L109.0800 64.9800
" />
<path d="M107.6000 63.5000
L89.0000 63.5000
" />
<path d="M109.0800 64.9800
L107.6000 63.5000
" />
<path d="M88.6500 63.8500
L88.6500 65.9000
" />
<path d="M124.3200 50.5286
L126.0000 48.8486
" />
<path d="M123.9000 41.5000
L122.8000 41.5000
" />
<path d="M124.3200 51.6600
L124.3200 50.5286
" />
<path d="M124.3200 51.6600
L124.2800 51.6200
" />
<path d="M126.0000 48.8486
L126.0000 43.6000
" />
<path d="M126.0000 43.6000
L123.9000 41.5000
" />
<path d="M56.6000 55.4400
L58.6600 55.4400
" />
<path d="M63.8000 50.3000
L79.9000 50.3000
" />
<path d="M81.8600 52.2600
L85.7000 52.2600
" />
<path d="M79.9000 50.3000
L81.8600 52.2600
" />
<path d="M58.6600 55.4400
L63.8000 50.3000
" />
<path d="M56.6000 60.4800
L71.0200 60.4800
" />
<path d="M71.0200 60.4800
L71.1000 60.5600
" />
<path d="M78.3400 56.0000
L78.4000 56.0600
" />
<path d="M63.6000 56.0000
L78.3400 56.0000
" />
<path d="M56.6000 58.0400
L61.5600 58.0400
" />
<path d="M61.5600 58.0400
L63.6000 56.0000
" />
<path d="M121.8000 51.6400
L121.7800 51.6600
" />
<path d="M121.7800 51.6600
L121.7800 46.7200
" />
<path d="M121.7800 46.7200
L122.8000 45.7000
" />
<path d="M111.6200 66.4000
L111.6200 66.9000
" />
<path d="M83.9500 63.6500
L83.9500 65.9000
" />
<path d="M111.5800 64.0800
L108.4000 60.9000
" />
<path d="M111.6200 66.9000
L111.5800 66.8600
" />
<path d="M108.4000 60.9000
L86.7000 60.9000
" />
<path d="M111.5800 66.8600
L111.5800 64.0800
" />
<path d="M86.7000 60.9000
L83.9500 63.6500
" />
<path d="M79.3500 63.6500
L79.3500 65.9000
" />
<path d="M84.9000 58.1000
L79.3500 63.6500
" />
<path d="M114.1200 62.8200
L109.4000 58.1000
" />
<path d="M109.4000 58.1000
L84.9000 58.1000
" />
<path d="M114.1200 66.8600
L114.1200 62.8200
" />
<path d="M114.1600 66.9000
L114.1200 66.8600
" />
<path d="M114.1600 66.4000
L114.1600 66.9000
" />
<path d="M107.3000 43.3000
L59.0000 43.3000
" />
<path d="M109.0400 45.0400
L107.3000 43.3000
" />
<path d="M59.0000 43.3000
L54.0600 48.2400
" />
<path d="M109.0400 51.6200
L109.0400 45.0400
" />
<path d="M54.0600 48.2400
L54.0600 52.9000
" />
<path d="M109.0800 51.6600
L109.0400 51.6200
" />
<path d="M124.3000 66.9200
L124.3000 79.9000
" />
<path d="M45.9000 73.4000
L45.9000 64.7000
" />
<path d="M124.3000 79.9000
L120.8000 83.4000
" />
<path d="M50.0800 60.5200
L54.0600 60.5200
" />
<path d="M45.9000 64.7000
L50.0800 60.5200
" />
<path d="M120.8000 83.4000
L55.9000 83.4000
" />
<path d="M124.3200 66.9000
L124.3000 66.9200
" />
<path d="M55.9000 83.4000
L45.9000 73.4000
" />
<path d="M59.2000 75.2000
L54.0600 70.0600
" />
<path d="M116.7000 66.9000
L116.7000 72.3000
" />
<path d="M54.0600 70.0600
L54.0600 68.1400
" />
<path d="M113.8000 75.2000
L59.2000 75.2000
" />
<path d="M116.7000 72.3000
L113.8000 75.2000
" />
<path d="M48.6000 72.3000
L48.6000 65.9000
" />
<path d="M51.4400 63.0600
L54.0600 63.0600
" />
<path d="M121.7800 66.9000
L121.7800 77.5200
" />
<path d="M48.6000 65.9000
L51.4400 63.0600
" />
<path d="M57.0000 80.7000
L48.6000 72.3000
" />
<path d="M121.7800 77.5200
L118.6000 80.7000
" />
<path d="M118.6000 80.7000
L57.0000 80.7000
" />
<path d="M50.5000 54.1000
L50.5000 47.6000
" />
<path d="M57.4000 40.7000
L109.5000 40.7000
" />
<path d="M50.5000 47.6000
L57.4000 40.7000
" />
<path d="M54.0600 55.4400
L51.8400 55.4400
" />
<path d="M51.8400 55.4400
L50.5000 54.1000
" />
<path d="M109.5000 40.7000
L114.1200 45.3200
" />
<path d="M114.1200 51.6200
L114.1600 51.6600
" />
<path d="M114.1200 45.3200
L114.1200 51.6200
" />
<path d="M52.7000 65.6000
L54.0600 65.6000
" />
<path d="M119.2400 66.9000
L119.2400 74.5600
" />
<path d="M51.2000 71.0000
L51.2000 67.1000
" />
<path d="M115.8000 78.0000
L58.2000 78.0000
" />
<path d="M119.2400 74.5600
L115.8000 78.0000
" />
<path d="M51.2000 67.1000
L52.7000 65.6000
" />
<path d="M58.2000 78.0000
L51.2000 71.0000
" />
<path d="M56.6000 51.2000
L61.8000 46.0000
" />
<path d="M105.5000 46.0000
L106.5400 47.0400
" />
<path d="M61.8000 46.0000
L105.5000 46.0000
" />
<path d="M56.6000 52.9000
L56.6000 51.2000
" />
<path d="M106.5400 47.0400
L106.5400 51.6600
" />
<path d="M47.7000 55.4000
L47.7000 45.5000
" />
<path d="M54.0600 57.9800
L50.2800 57.9800
" />
<path d="M55.4000 37.8000
L111.6142 37.8000
" />
<path d="M111.6142 37.8000
L117.1000 43.2858
" />
<path d="M119.2400 49.7400
L119.2400 51.6600
" />
<path d="M117.1000 43.2858
L117.1000 47.6000
" />
<path d="M50.2800 57.9800
L47.7000 55.4000
" />
<path d="M47.7000 45.5000
L55.4000 37.8000
" />
<path d="M117.1000 47.6000
L119.2400 49.7400
" />
</g> 
</svg>
