<?xml version="1.0" standalone="no"?>
 <!DOCTYPE svg PUBLIC "-//W3C//DTD SVG 1.1//EN" 
 "http://www.w3.org/Graphics/SVG/1.1/DTD/svg11.dtd"> 
<svg
  xmlns:svg="http://www.w3.org/2000/svg"
  xmlns="http://www.w3.org/2000/svg"
  xmlns:xlink="http://www.w3.org/1999/xlink"
  version="1.1"
  width="297.0022mm" height="210.0072mm" viewBox="0.0000 0.0000 297.0022 210.0072">
<title>SVG Image created as midi-viscount-rte0616-F_Silkscreen.svg date 2024/06/23 22:58:11 </title>
  <desc>Image generated by PCBNEW </desc>
<g style="fill:#000000; fill-opacity:1.0000;stroke:#000000; stroke-opacity:1.0000;
stroke-linecap:round; stroke-linejoin:round;"
 transform="translate(0 0) scale(1 1)">
<path style="fill:none; 
stroke:#000000; stroke-width:0.1000; stroke-opacity:1; 
stroke-linecap:round; stroke-linejoin:round;fill:none"
d="M 120.8000,39.5000
131.3000,39.5000
131.3000,43.5000
120.8000,43.5000
Z" /> 
</g>
<g style="fill:none; 
stroke:#000000; stroke-width:0.1000; stroke-opacity:1; 
stroke-linecap:round; stroke-linejoin:round;">
<path d="M91.2500 63.9000
L92.3500 63.9000
" />
<path d="M92.7500 63.9000
L93.8500 63.9000
" />
<path d="M94.2500 63.9000
L95.3500 63.9000
" />
<path d="M95.3500 63.9000
L95.3500 65.0000
" />
<path d="M95.3500 65.4000
L95.3500 66.5000
" />
<path d="M95.3500 66.9000
L95.3500 68.0000
" />
<path d="M95.3500 68.4000
L95.3500 69.5000
" />
<path d="M95.3500 69.9000
L95.3500 71.0000
" />
<path d="M95.3500 71.4000
L95.3500 72.5000
" />
<path d="M95.3500 72.9000
L95.3500 74.0000
" />
</g>
<g style="fill:#000000; fill-opacity:1.0000; stroke:none;">
<circle cx="95.3500" cy="74.4000" r="0.0500" /> 
</g>
<g style="fill:none; 
stroke:#000000; stroke-width:0.1000; stroke-opacity:1; 
stroke-linecap:round; stroke-linejoin:round;">
<path d="M95.3500 74.4000
L94.2500 74.4000
" />
<path d="M93.8500 74.4000
L92.7500 74.4000
" />
<path d="M92.3500 74.4000
L91.2500 74.4000
" />
<path d="M91.2500 74.4000
L91.2500 73.3000
" />
<path d="M91.2500 72.9000
L91.2500 71.8000
" />
<path d="M91.2500 71.4000
L91.2500 70.3000
" />
<path d="M91.2500 69.9000
L91.2500 68.8000
" />
<path d="M91.2500 68.4000
L91.2500 67.3000
" />
<path d="M91.2500 66.9000
L91.2500 65.8000
" />
<path d="M91.2500 65.4000
L91.2500 64.3000
" />
</g>
<g style="fill:#000000; fill-opacity:1.0000; stroke:none;">
<circle cx="91.2500" cy="63.9000" r="0.0500" /> 
<path style="fill:none; 
stroke:#000000; stroke-width:0.1000; stroke-opacity:1; 
stroke-linecap:round; stroke-linejoin:round;fill:none"
d="M 77.3000,63.9000
81.4000,63.9000
81.4000,74.4000
77.3000,74.4000
Z" /> 
<path style="fill:none; 
stroke:#000000; stroke-width:0.1000; stroke-opacity:1; 
stroke-linecap:round; stroke-linejoin:round;fill:none"
d="M 86.6000,63.9000
90.7000,63.9000
90.7000,74.4000
86.6000,74.4000
Z" /> 
<path style="fill:none; 
stroke:#000000; stroke-width:0.1000; stroke-opacity:1; 
stroke-linecap:round; stroke-linejoin:round;fill:none"
d="M 120.8000,43.7000
131.3000,43.7000
131.3000,47.7000
120.8000,47.7000
Z" /> 
<path style="fill:none; 
stroke:#000000; stroke-width:0.1000; stroke-opacity:1; 
stroke-linecap:round; stroke-linejoin:round;fill:none"
d="M 81.9000,63.9000
86.0000,63.9000
86.0000,74.4000
81.9000,74.4000
Z" /> 
</g>
<g style="fill:none; 
stroke:#000000; stroke-width:0.1000; stroke-opacity:1; 
stroke-linecap:round; stroke-linejoin:round;">
<g transform="rotate(-90.000000 137.7000 76.7000)">
<text x="137.7000" y="76.7000"
textLength="4.7190" font-size="1.3333" lengthAdjust="spacingAndGlyphs"
text-anchor="start" opacity="0">rev1.2</text>
</g>
<g class="stroked-text"><desc>rev1.2</desc>
<path d="M137.5724 76.3961
L136.9058 76.3961
" />
<path d="M137.0962 76.3961
L137.0010 76.3485
" />
<path d="M137.0010 76.3485
L136.9534 76.3009
" />
<path d="M136.9534 76.3009
L136.9058 76.2056
" />
<path d="M136.9058 76.2056
L136.9058 76.1104
" />
<path d="M137.5248 75.3961
L137.5724 75.4914
" />
<path d="M137.5724 75.4914
L137.5724 75.6818
" />
<path d="M137.5724 75.6818
L137.5248 75.7771
" />
<path d="M137.5248 75.7771
L137.4296 75.8247
" />
<path d="M137.4296 75.8247
L137.0486 75.8247
" />
<path d="M137.0486 75.8247
L136.9534 75.7771
" />
<path d="M136.9534 75.7771
L136.9058 75.6818
" />
<path d="M136.9058 75.6818
L136.9058 75.4914
" />
<path d="M136.9058 75.4914
L136.9534 75.3961
" />
<path d="M136.9534 75.3961
L137.0486 75.3485
" />
<path d="M137.0486 75.3485
L137.1438 75.3485
" />
<path d="M137.1438 75.3485
L137.2391 75.8247
" />
<path d="M136.9058 75.0152
L137.5724 74.7771
" />
<path d="M137.5724 74.7771
L136.9058 74.5390
" />
<path d="M137.5724 73.6342
L137.5724 74.2056
" />
<path d="M137.5724 73.9199
L136.5724 73.9199
" />
<path d="M136.5724 73.9199
L136.7153 74.0152
" />
<path d="M136.7153 74.0152
L136.8105 74.1104
" />
<path d="M136.8105 74.1104
L136.8581 74.2056
" />
<path d="M137.4772 73.2056
L137.5248 73.1580
" />
<path d="M137.5248 73.1580
L137.5724 73.2056
" />
<path d="M137.5724 73.2056
L137.5248 73.2533
" />
<path d="M137.5248 73.2533
L137.4772 73.2056
" />
<path d="M137.4772 73.2056
L137.5724 73.2056
" />
<path d="M136.6677 72.7771
L136.6200 72.7294
" />
<path d="M136.6200 72.7294
L136.5724 72.6342
" />
<path d="M136.5724 72.6342
L136.5724 72.3961
" />
<path d="M136.5724 72.3961
L136.6200 72.3009
" />
<path d="M136.6200 72.3009
L136.6677 72.2533
" />
<path d="M136.6677 72.2533
L136.7629 72.2056
" />
<path d="M136.7629 72.2056
L136.8581 72.2056
" />
<path d="M136.8581 72.2056
L137.0010 72.2533
" />
<path d="M137.0010 72.2533
L137.5724 72.8247
" />
<path d="M137.5724 72.8247
L137.5724 72.2056
" />
</g></g>
<g style="fill:none; 
stroke:#000000; stroke-width:0.2000; stroke-opacity:1; 
stroke-linecap:round; stroke-linejoin:round;">
<text x="131.8000" y="81.1801"
textLength="3.4952" font-size="1.3333" lengthAdjust="spacingAndGlyphs"
text-anchor="end" opacity="0">MIDI</text>
<g class="stroked-text"><desc>MIDI</desc>
<path d="M128.8113 81.0473
L128.8113 80.0473
" />
<path d="M128.8113 80.0473
L129.1446 80.7616
" />
<path d="M129.1446 80.7616
L129.4779 80.0473
" />
<path d="M129.4779 80.0473
L129.4779 81.0473
" />
<path d="M129.9541 81.0473
L129.9541 80.0473
" />
<path d="M130.4303 81.0473
L130.4303 80.0473
" />
<path d="M130.4303 80.0473
L130.6684 80.0473
" />
<path d="M130.6684 80.0473
L130.8113 80.0949
" />
<path d="M130.8113 80.0949
L130.9065 80.1902
" />
<path d="M130.9065 80.1902
L130.9541 80.2854
" />
<path d="M130.9541 80.2854
L131.0018 80.4759
" />
<path d="M131.0018 80.4759
L131.0018 80.6188
" />
<path d="M131.0018 80.6188
L130.9541 80.8092
" />
<path d="M130.9541 80.8092
L130.9065 80.9045
" />
<path d="M130.9065 80.9045
L130.8113 80.9997
" />
<path d="M130.8113 80.9997
L130.6684 81.0473
" />
<path d="M130.6684 81.0473
L130.4303 81.0473
" />
<path d="M131.4303 81.0473
L131.4303 80.0473
" />
</g><text x="131.8000" y="82.7901"
textLength="6.6857" font-size="1.3333" lengthAdjust="spacingAndGlyphs"
text-anchor="end" opacity="0">Viscount</text>
<g class="stroked-text"><desc>Viscount</desc>
<path d="M125.4779 81.6573
L125.8113 82.6573
" />
<path d="M125.8113 82.6573
L126.1446 81.6573
" />
<path d="M126.4779 82.6573
L126.4779 81.9906
" />
<path d="M126.4779 81.6573
L126.4303 81.7049
" />
<path d="M126.4303 81.7049
L126.4779 81.7525
" />
<path d="M126.4779 81.7525
L126.5256 81.7049
" />
<path d="M126.5256 81.7049
L126.4779 81.6573
" />
<path d="M126.4779 81.6573
L126.4779 81.7525
" />
<path d="M126.9065 82.6097
L127.0018 82.6573
" />
<path d="M127.0018 82.6573
L127.1922 82.6573
" />
<path d="M127.1922 82.6573
L127.2875 82.6097
" />
<path d="M127.2875 82.6097
L127.3351 82.5144
" />
<path d="M127.3351 82.5144
L127.3351 82.4668
" />
<path d="M127.3351 82.4668
L127.2875 82.3716
" />
<path d="M127.2875 82.3716
L127.1922 82.3239
" />
<path d="M127.1922 82.3239
L127.0494 82.3239
" />
<path d="M127.0494 82.3239
L126.9541 82.2763
" />
<path d="M126.9541 82.2763
L126.9065 82.1811
" />
<path d="M126.9065 82.1811
L126.9065 82.1335
" />
<path d="M126.9065 82.1335
L126.9541 82.0382
" />
<path d="M126.9541 82.0382
L127.0494 81.9906
" />
<path d="M127.0494 81.9906
L127.1922 81.9906
" />
<path d="M127.1922 81.9906
L127.2875 82.0382
" />
<path d="M128.1922 82.6097
L128.0970 82.6573
" />
<path d="M128.0970 82.6573
L127.9065 82.6573
" />
<path d="M127.9065 82.6573
L127.8113 82.6097
" />
<path d="M127.8113 82.6097
L127.7637 82.5620
" />
<path d="M127.7637 82.5620
L127.7160 82.4668
" />
<path d="M127.7160 82.4668
L127.7160 82.1811
" />
<path d="M127.7160 82.1811
L127.7637 82.0858
" />
<path d="M127.7637 82.0858
L127.8113 82.0382
" />
<path d="M127.8113 82.0382
L127.9065 81.9906
" />
<path d="M127.9065 81.9906
L128.0970 81.9906
" />
<path d="M128.0970 81.9906
L128.1922 82.0382
" />
<path d="M128.7637 82.6573
L128.6684 82.6097
" />
<path d="M128.6684 82.6097
L128.6208 82.5620
" />
<path d="M128.6208 82.5620
L128.5732 82.4668
" />
<path d="M128.5732 82.4668
L128.5732 82.1811
" />
<path d="M128.5732 82.1811
L128.6208 82.0858
" />
<path d="M128.6208 82.0858
L128.6684 82.0382
" />
<path d="M128.6684 82.0382
L128.7637 81.9906
" />
<path d="M128.7637 81.9906
L128.9065 81.9906
" />
<path d="M128.9065 81.9906
L129.0018 82.0382
" />
<path d="M129.0018 82.0382
L129.0494 82.0858
" />
<path d="M129.0494 82.0858
L129.0970 82.1811
" />
<path d="M129.0970 82.1811
L129.0970 82.4668
" />
<path d="M129.0970 82.4668
L129.0494 82.5620
" />
<path d="M129.0494 82.5620
L129.0018 82.6097
" />
<path d="M129.0018 82.6097
L128.9065 82.6573
" />
<path d="M128.9065 82.6573
L128.7637 82.6573
" />
<path d="M129.9541 81.9906
L129.9541 82.6573
" />
<path d="M129.5256 81.9906
L129.5256 82.5144
" />
<path d="M129.5256 82.5144
L129.5732 82.6097
" />
<path d="M129.5732 82.6097
L129.6684 82.6573
" />
<path d="M129.6684 82.6573
L129.8113 82.6573
" />
<path d="M129.8113 82.6573
L129.9065 82.6097
" />
<path d="M129.9065 82.6097
L129.9541 82.5620
" />
<path d="M130.4303 81.9906
L130.4303 82.6573
" />
<path d="M130.4303 82.0858
L130.4779 82.0382
" />
<path d="M130.4779 82.0382
L130.5732 81.9906
" />
<path d="M130.5732 81.9906
L130.7160 81.9906
" />
<path d="M130.7160 81.9906
L130.8113 82.0382
" />
<path d="M130.8113 82.0382
L130.8589 82.1335
" />
<path d="M130.8589 82.1335
L130.8589 82.6573
" />
<path d="M131.1922 81.9906
L131.5732 81.9906
" />
<path d="M131.3351 81.6573
L131.3351 82.5144
" />
<path d="M131.3351 82.5144
L131.3827 82.6097
" />
<path d="M131.3827 82.6097
L131.4779 82.6573
" />
<path d="M131.4779 82.6573
L131.5732 82.6573
" />
</g><text x="131.8000" y="84.4000"
textLength="8.8286" font-size="1.3333" lengthAdjust="spacingAndGlyphs"
text-anchor="end" opacity="0">Pedalboard</text>
<g class="stroked-text"><desc>Pedalboard</desc>
<path d="M123.4779 84.2672
L123.4779 83.2672
" />
<path d="M123.4779 83.2672
L123.8589 83.2672
" />
<path d="M123.8589 83.2672
L123.9541 83.3148
" />
<path d="M123.9541 83.3148
L124.0018 83.3625
" />
<path d="M124.0018 83.3625
L124.0494 83.4577
" />
<path d="M124.0494 83.4577
L124.0494 83.6006
" />
<path d="M124.0494 83.6006
L124.0018 83.6958
" />
<path d="M124.0018 83.6958
L123.9541 83.7434
" />
<path d="M123.9541 83.7434
L123.8589 83.7910
" />
<path d="M123.8589 83.7910
L123.4779 83.7910
" />
<path d="M124.8589 84.2196
L124.7637 84.2672
" />
<path d="M124.7637 84.2672
L124.5732 84.2672
" />
<path d="M124.5732 84.2672
L124.4779 84.2196
" />
<path d="M124.4779 84.2196
L124.4303 84.1244
" />
<path d="M124.4303 84.1244
L124.4303 83.7434
" />
<path d="M124.4303 83.7434
L124.4779 83.6482
" />
<path d="M124.4779 83.6482
L124.5732 83.6006
" />
<path d="M124.5732 83.6006
L124.7637 83.6006
" />
<path d="M124.7637 83.6006
L124.8589 83.6482
" />
<path d="M124.8589 83.6482
L124.9065 83.7434
" />
<path d="M124.9065 83.7434
L124.9065 83.8386
" />
<path d="M124.9065 83.8386
L124.4303 83.9339
" />
<path d="M125.7637 84.2672
L125.7637 83.2672
" />
<path d="M125.7637 84.2196
L125.6684 84.2672
" />
<path d="M125.6684 84.2672
L125.4779 84.2672
" />
<path d="M125.4779 84.2672
L125.3827 84.2196
" />
<path d="M125.3827 84.2196
L125.3351 84.1720
" />
<path d="M125.3351 84.1720
L125.2875 84.0767
" />
<path d="M125.2875 84.0767
L125.2875 83.7910
" />
<path d="M125.2875 83.7910
L125.3351 83.6958
" />
<path d="M125.3351 83.6958
L125.3827 83.6482
" />
<path d="M125.3827 83.6482
L125.4779 83.6006
" />
<path d="M125.4779 83.6006
L125.6684 83.6006
" />
<path d="M125.6684 83.6006
L125.7637 83.6482
" />
<path d="M126.6684 84.2672
L126.6684 83.7434
" />
<path d="M126.6684 83.7434
L126.6208 83.6482
" />
<path d="M126.6208 83.6482
L126.5256 83.6006
" />
<path d="M126.5256 83.6006
L126.3351 83.6006
" />
<path d="M126.3351 83.6006
L126.2398 83.6482
" />
<path d="M126.6684 84.2196
L126.5732 84.2672
" />
<path d="M126.5732 84.2672
L126.3351 84.2672
" />
<path d="M126.3351 84.2672
L126.2398 84.2196
" />
<path d="M126.2398 84.2196
L126.1922 84.1244
" />
<path d="M126.1922 84.1244
L126.1922 84.0291
" />
<path d="M126.1922 84.0291
L126.2398 83.9339
" />
<path d="M126.2398 83.9339
L126.3351 83.8863
" />
<path d="M126.3351 83.8863
L126.5732 83.8863
" />
<path d="M126.5732 83.8863
L126.6684 83.8386
" />
<path d="M127.2875 84.2672
L127.1922 84.2196
" />
<path d="M127.1922 84.2196
L127.1446 84.1244
" />
<path d="M127.1446 84.1244
L127.1446 83.2672
" />
<path d="M127.6684 84.2672
L127.6684 83.2672
" />
<path d="M127.6684 83.6482
L127.7637 83.6006
" />
<path d="M127.7637 83.6006
L127.9541 83.6006
" />
<path d="M127.9541 83.6006
L128.0494 83.6482
" />
<path d="M128.0494 83.6482
L128.0970 83.6958
" />
<path d="M128.0970 83.6958
L128.1446 83.7910
" />
<path d="M128.1446 83.7910
L128.1446 84.0767
" />
<path d="M128.1446 84.0767
L128.0970 84.1720
" />
<path d="M128.0970 84.1720
L128.0494 84.2196
" />
<path d="M128.0494 84.2196
L127.9541 84.2672
" />
<path d="M127.9541 84.2672
L127.7637 84.2672
" />
<path d="M127.7637 84.2672
L127.6684 84.2196
" />
<path d="M128.7160 84.2672
L128.6208 84.2196
" />
<path d="M128.6208 84.2196
L128.5732 84.1720
" />
<path d="M128.5732 84.1720
L128.5256 84.0767
" />
<path d="M128.5256 84.0767
L128.5256 83.7910
" />
<path d="M128.5256 83.7910
L128.5732 83.6958
" />
<path d="M128.5732 83.6958
L128.6208 83.6482
" />
<path d="M128.6208 83.6482
L128.7160 83.6006
" />
<path d="M128.7160 83.6006
L128.8589 83.6006
" />
<path d="M128.8589 83.6006
L128.9541 83.6482
" />
<path d="M128.9541 83.6482
L129.0018 83.6958
" />
<path d="M129.0018 83.6958
L129.0494 83.7910
" />
<path d="M129.0494 83.7910
L129.0494 84.0767
" />
<path d="M129.0494 84.0767
L129.0018 84.1720
" />
<path d="M129.0018 84.1720
L128.9541 84.2196
" />
<path d="M128.9541 84.2196
L128.8589 84.2672
" />
<path d="M128.8589 84.2672
L128.7160 84.2672
" />
<path d="M129.9065 84.2672
L129.9065 83.7434
" />
<path d="M129.9065 83.7434
L129.8589 83.6482
" />
<path d="M129.8589 83.6482
L129.7637 83.6006
" />
<path d="M129.7637 83.6006
L129.5732 83.6006
" />
<path d="M129.5732 83.6006
L129.4779 83.6482
" />
<path d="M129.9065 84.2196
L129.8113 84.2672
" />
<path d="M129.8113 84.2672
L129.5732 84.2672
" />
<path d="M129.5732 84.2672
L129.4779 84.2196
" />
<path d="M129.4779 84.2196
L129.4303 84.1244
" />
<path d="M129.4303 84.1244
L129.4303 84.0291
" />
<path d="M129.4303 84.0291
L129.4779 83.9339
" />
<path d="M129.4779 83.9339
L129.5732 83.8863
" />
<path d="M129.5732 83.8863
L129.8113 83.8863
" />
<path d="M129.8113 83.8863
L129.9065 83.8386
" />
<path d="M130.3827 84.2672
L130.3827 83.6006
" />
<path d="M130.3827 83.7910
L130.4303 83.6958
" />
<path d="M130.4303 83.6958
L130.4779 83.6482
" />
<path d="M130.4779 83.6482
L130.5732 83.6006
" />
<path d="M130.5732 83.6006
L130.6684 83.6006
" />
<path d="M131.4303 84.2672
L131.4303 83.2672
" />
<path d="M131.4303 84.2196
L131.3351 84.2672
" />
<path d="M131.3351 84.2672
L131.1446 84.2672
" />
<path d="M131.1446 84.2672
L131.0494 84.2196
" />
<path d="M131.0494 84.2196
L131.0018 84.1720
" />
<path d="M131.0018 84.1720
L130.9541 84.0767
" />
<path d="M130.9541 84.0767
L130.9541 83.7910
" />
<path d="M130.9541 83.7910
L131.0018 83.6958
" />
<path d="M131.0018 83.6958
L131.0494 83.6482
" />
<path d="M131.0494 83.6482
L131.1446 83.6006
" />
<path d="M131.1446 83.6006
L131.3351 83.6006
" />
<path d="M131.3351 83.6006
L131.4303 83.6482
" />
</g></g>
<g style="fill:none; 
stroke:#000000; stroke-width:0.1500; stroke-opacity:1; 
stroke-linecap:round; stroke-linejoin:round;">
<text x="47.6000" y="35.6500"
textLength="4.5357" font-size="1.3333" lengthAdjust="spacingAndGlyphs"
text-anchor="middle" opacity="0">REF**</text>
<g class="stroked-text"><desc>REF**</desc>
<path d="M46.2667 35.6048
L45.9333 35.1286
" />
<path d="M45.6952 35.6048
L45.6952 34.6048
" />
<path d="M45.6952 34.6048
L46.0762 34.6048
" />
<path d="M46.0762 34.6048
L46.1714 34.6524
" />
<path d="M46.1714 34.6524
L46.2190 34.7001
" />
<path d="M46.2190 34.7001
L46.2667 34.7953
" />
<path d="M46.2667 34.7953
L46.2667 34.9382
" />
<path d="M46.2667 34.9382
L46.2190 35.0334
" />
<path d="M46.2190 35.0334
L46.1714 35.0810
" />
<path d="M46.1714 35.0810
L46.0762 35.1286
" />
<path d="M46.0762 35.1286
L45.6952 35.1286
" />
<path d="M46.6952 35.0810
L47.0286 35.0810
" />
<path d="M47.1714 35.6048
L46.6952 35.6048
" />
<path d="M46.6952 35.6048
L46.6952 34.6048
" />
<path d="M46.6952 34.6048
L47.1714 34.6048
" />
<path d="M47.9333 35.0810
L47.6000 35.0810
" />
<path d="M47.6000 35.6048
L47.6000 34.6048
" />
<path d="M47.6000 34.6048
L48.0762 34.6048
" />
<path d="M48.6000 34.6048
L48.6000 34.8429
" />
<path d="M48.3619 34.7477
L48.6000 34.8429
" />
<path d="M48.6000 34.8429
L48.8381 34.7477
" />
<path d="M48.4571 35.0334
L48.6000 34.8429
" />
<path d="M48.6000 34.8429
L48.7429 35.0334
" />
<path d="M49.3619 34.6048
L49.3619 34.8429
" />
<path d="M49.1238 34.7477
L49.3619 34.8429
" />
<path d="M49.3619 34.8429
L49.6000 34.7477
" />
<path d="M49.2190 35.0334
L49.3619 34.8429
" />
<path d="M49.3619 34.8429
L49.5048 35.0334
" />
</g><text x="47.6000" y="78.2500"
textLength="4.5357" font-size="1.3333" lengthAdjust="spacingAndGlyphs"
text-anchor="middle" opacity="0">REF**</text>
<g class="stroked-text"><desc>REF**</desc>
<path d="M46.2667 78.2048
L45.9333 77.7286
" />
<path d="M45.6952 78.2048
L45.6952 77.2048
" />
<path d="M45.6952 77.2048
L46.0762 77.2048
" />
<path d="M46.0762 77.2048
L46.1714 77.2524
" />
<path d="M46.1714 77.2524
L46.2190 77.3001
" />
<path d="M46.2190 77.3001
L46.2667 77.3953
" />
<path d="M46.2667 77.3953
L46.2667 77.5382
" />
<path d="M46.2667 77.5382
L46.2190 77.6334
" />
<path d="M46.2190 77.6334
L46.1714 77.6810
" />
<path d="M46.1714 77.6810
L46.0762 77.7286
" />
<path d="M46.0762 77.7286
L45.6952 77.7286
" />
<path d="M46.6952 77.6810
L47.0286 77.6810
" />
<path d="M47.1714 78.2048
L46.6952 78.2048
" />
<path d="M46.6952 78.2048
L46.6952 77.2048
" />
<path d="M46.6952 77.2048
L47.1714 77.2048
" />
<path d="M47.9333 77.6810
L47.6000 77.6810
" />
<path d="M47.6000 78.2048
L47.6000 77.2048
" />
<path d="M47.6000 77.2048
L48.0762 77.2048
" />
<path d="M48.6000 77.2048
L48.6000 77.4429
" />
<path d="M48.3619 77.3477
L48.6000 77.4429
" />
<path d="M48.6000 77.4429
L48.8381 77.3477
" />
<path d="M48.4571 77.6334
L48.6000 77.4429
" />
<path d="M48.6000 77.4429
L48.7429 77.6334
" />
<path d="M49.3619 77.2048
L49.3619 77.4429
" />
<path d="M49.1238 77.3477
L49.3619 77.4429
" />
<path d="M49.3619 77.4429
L49.6000 77.3477
" />
<path d="M49.2190 77.6334
L49.3619 77.4429
" />
<path d="M49.3619 77.4429
L49.5048 77.6334
" />
</g><text x="134.4000" y="78.2500"
textLength="4.5357" font-size="1.3333" lengthAdjust="spacingAndGlyphs"
text-anchor="middle" opacity="0">REF**</text>
<g class="stroked-text"><desc>REF**</desc>
<path d="M133.0667 78.2048
L132.7333 77.7286
" />
<path d="M132.4952 78.2048
L132.4952 77.2048
" />
<path d="M132.4952 77.2048
L132.8762 77.2048
" />
<path d="M132.8762 77.2048
L132.9714 77.2524
" />
<path d="M132.9714 77.2524
L133.0190 77.3001
" />
<path d="M133.0190 77.3001
L133.0667 77.3953
" />
<path d="M133.0667 77.3953
L133.0667 77.5382
" />
<path d="M133.0667 77.5382
L133.0190 77.6334
" />
<path d="M133.0190 77.6334
L132.9714 77.6810
" />
<path d="M132.9714 77.6810
L132.8762 77.7286
" />
<path d="M132.8762 77.7286
L132.4952 77.7286
" />
<path d="M133.4952 77.6810
L133.8286 77.6810
" />
<path d="M133.9714 78.2048
L133.4952 78.2048
" />
<path d="M133.4952 78.2048
L133.4952 77.2048
" />
<path d="M133.4952 77.2048
L133.9714 77.2048
" />
<path d="M134.7333 77.6810
L134.4000 77.6810
" />
<path d="M134.4000 78.2048
L134.4000 77.2048
" />
<path d="M134.4000 77.2048
L134.8762 77.2048
" />
<path d="M135.4000 77.2048
L135.4000 77.4429
" />
<path d="M135.1619 77.3477
L135.4000 77.4429
" />
<path d="M135.4000 77.4429
L135.6381 77.3477
" />
<path d="M135.2571 77.6334
L135.4000 77.4429
" />
<path d="M135.4000 77.4429
L135.5429 77.6334
" />
<path d="M136.1619 77.2048
L136.1619 77.4429
" />
<path d="M135.9238 77.3477
L136.1619 77.4429
" />
<path d="M136.1619 77.4429
L136.4000 77.3477
" />
<path d="M136.0190 77.6334
L136.1619 77.4429
" />
<path d="M136.1619 77.4429
L136.3048 77.6334
" />
</g><text x="134.4000" y="35.6500"
textLength="4.5357" font-size="1.3333" lengthAdjust="spacingAndGlyphs"
text-anchor="middle" opacity="0">REF**</text>
<g class="stroked-text"><desc>REF**</desc>
<path d="M133.0667 35.6048
L132.7333 35.1286
" />
<path d="M132.4952 35.6048
L132.4952 34.6048
" />
<path d="M132.4952 34.6048
L132.8762 34.6048
" />
<path d="M132.8762 34.6048
L132.9714 34.6524
" />
<path d="M132.9714 34.6524
L133.0190 34.7001
" />
<path d="M133.0190 34.7001
L133.0667 34.7953
" />
<path d="M133.0667 34.7953
L133.0667 34.9382
" />
<path d="M133.0667 34.9382
L133.0190 35.0334
" />
<path d="M133.0190 35.0334
L132.9714 35.0810
" />
<path d="M132.9714 35.0810
L132.8762 35.1286
" />
<path d="M132.8762 35.1286
L132.4952 35.1286
" />
<path d="M133.4952 35.0810
L133.8286 35.0810
" />
<path d="M133.9714 35.6048
L133.4952 35.6048
" />
<path d="M133.4952 35.6048
L133.4952 34.6048
" />
<path d="M133.4952 34.6048
L133.9714 34.6048
" />
<path d="M134.7333 35.0810
L134.4000 35.0810
" />
<path d="M134.4000 35.6048
L134.4000 34.6048
" />
<path d="M134.4000 34.6048
L134.8762 34.6048
" />
<path d="M135.4000 34.6048
L135.4000 34.8429
" />
<path d="M135.1619 34.7477
L135.4000 34.8429
" />
<path d="M135.4000 34.8429
L135.6381 34.7477
" />
<path d="M135.2571 35.0334
L135.4000 34.8429
" />
<path d="M135.4000 34.8429
L135.5429 35.0334
" />
<path d="M136.1619 34.6048
L136.1619 34.8429
" />
<path d="M135.9238 34.7477
L136.1619 34.8429
" />
<path d="M136.1619 34.8429
L136.4000 34.7477
" />
<path d="M136.0190 35.0334
L136.1619 34.8429
" />
<path d="M136.1619 34.8429
L136.3048 35.0334
" />
</g><g transform="rotate(-90.000000 120.1000 45.6000)">
<text x="120.1000" y="46.1000"
textLength="2.9167" font-size="1.3333" lengthAdjust="spacingAndGlyphs"
text-anchor="middle" opacity="0">J12</text>
</g>
<g class="stroked-text"><desc>J12</desc>
<path d="M119.5548 46.4095
L120.2691 46.4095
" />
<path d="M120.2691 46.4095
L120.4120 46.4571
" />
<path d="M120.4120 46.4571
L120.5072 46.5524
" />
<path d="M120.5072 46.5524
L120.5548 46.6952
" />
<path d="M120.5548 46.6952
L120.5548 46.7905
" />
<path d="M120.5548 45.4095
L120.5548 45.9810
" />
<path d="M120.5548 45.6952
L119.5548 45.6952
" />
<path d="M119.5548 45.6952
L119.6977 45.7905
" />
<path d="M119.6977 45.7905
L119.7929 45.8857
" />
<path d="M119.7929 45.8857
L119.8405 45.9810
" />
<path d="M119.6501 45.0286
L119.6024 44.9810
" />
<path d="M119.6024 44.9810
L119.5548 44.8857
" />
<path d="M119.5548 44.8857
L119.5548 44.6476
" />
<path d="M119.5548 44.6476
L119.6024 44.5524
" />
<path d="M119.6024 44.5524
L119.6501 44.5048
" />
<path d="M119.6501 44.5048
L119.7453 44.4571
" />
<path d="M119.7453 44.4571
L119.8405 44.4571
" />
<path d="M119.8405 44.4571
L119.9834 44.5048
" />
<path d="M119.9834 44.5048
L120.5548 45.0762
" />
<path d="M120.5548 45.0762
L120.5548 44.4571
" />
</g><text x="88.6500" y="63.7000"
textLength="1.9643" font-size="1.3333" lengthAdjust="spacingAndGlyphs"
text-anchor="middle" opacity="0">J4</text>
<g class="stroked-text"><desc>J4</desc>
<path d="M88.3167 62.6548
L88.3167 63.3691
" />
<path d="M88.3167 63.3691
L88.2690 63.5120
" />
<path d="M88.2690 63.5120
L88.1738 63.6072
" />
<path d="M88.1738 63.6072
L88.0310 63.6548
" />
<path d="M88.0310 63.6548
L87.9357 63.6548
" />
<path d="M89.2214 62.9882
L89.2214 63.6548
" />
<path d="M88.9833 62.6072
L88.7452 63.3215
" />
<path d="M88.7452 63.3215
L89.3643 63.3215
" />
</g><text x="88.6000" y="75.8000"
textLength="1.9643" font-size="1.3333" lengthAdjust="spacingAndGlyphs"
text-anchor="middle" opacity="0">J5</text>
<g class="stroked-text"><desc>J5</desc>
<path d="M88.2667 74.7548
L88.2667 75.4691
" />
<path d="M88.2667 75.4691
L88.2190 75.6120
" />
<path d="M88.2190 75.6120
L88.1238 75.7072
" />
<path d="M88.1238 75.7072
L87.9810 75.7548
" />
<path d="M87.9810 75.7548
L87.8857 75.7548
" />
<path d="M89.2190 74.7548
L88.7429 74.7548
" />
<path d="M88.7429 74.7548
L88.6952 75.2310
" />
<path d="M88.6952 75.2310
L88.7429 75.1834
" />
<path d="M88.7429 75.1834
L88.8381 75.1358
" />
<path d="M88.8381 75.1358
L89.0762 75.1358
" />
<path d="M89.0762 75.1358
L89.1714 75.1834
" />
<path d="M89.1714 75.1834
L89.2190 75.2310
" />
<path d="M89.2190 75.2310
L89.2667 75.3262
" />
<path d="M89.2667 75.3262
L89.2667 75.5643
" />
<path d="M89.2667 75.5643
L89.2190 75.6596
" />
<path d="M89.2190 75.6596
L89.1714 75.7072
" />
<path d="M89.1714 75.7072
L89.0762 75.7548
" />
<path d="M89.0762 75.7548
L88.8381 75.7548
" />
<path d="M88.8381 75.7548
L88.7429 75.7072
" />
<path d="M88.7429 75.7072
L88.6952 75.6596
" />
</g><text x="93.3000" y="75.7000"
textLength="1.9643" font-size="1.3333" lengthAdjust="spacingAndGlyphs"
text-anchor="middle" opacity="0">J3</text>
<g class="stroked-text"><desc>J3</desc>
<path d="M92.9667 74.6548
L92.9667 75.3691
" />
<path d="M92.9667 75.3691
L92.9190 75.5120
" />
<path d="M92.9190 75.5120
L92.8238 75.6072
" />
<path d="M92.8238 75.6072
L92.6810 75.6548
" />
<path d="M92.6810 75.6548
L92.5857 75.6548
" />
<path d="M93.3476 74.6548
L93.9667 74.6548
" />
<path d="M93.9667 74.6548
L93.6333 75.0358
" />
<path d="M93.6333 75.0358
L93.7762 75.0358
" />
<path d="M93.7762 75.0358
L93.8714 75.0834
" />
<path d="M93.8714 75.0834
L93.9190 75.1310
" />
<path d="M93.9190 75.1310
L93.9667 75.2262
" />
<path d="M93.9667 75.2262
L93.9667 75.4643
" />
<path d="M93.9667 75.4643
L93.9190 75.5596
" />
<path d="M93.9190 75.5596
L93.8714 75.6072
" />
<path d="M93.8714 75.6072
L93.7762 75.6548
" />
<path d="M93.7762 75.6548
L93.4905 75.6548
" />
<path d="M93.4905 75.6548
L93.3952 75.6072
" />
<path d="M93.3952 75.6072
L93.3476 75.5596
" />
</g><text x="83.9000" y="75.7000"
textLength="1.9643" font-size="1.3333" lengthAdjust="spacingAndGlyphs"
text-anchor="middle" opacity="0">J7</text>
<g class="stroked-text"><desc>J7</desc>
<path d="M83.5667 74.6548
L83.5667 75.3691
" />
<path d="M83.5667 75.3691
L83.5190 75.5120
" />
<path d="M83.5190 75.5120
L83.4238 75.6072
" />
<path d="M83.4238 75.6072
L83.2810 75.6548
" />
<path d="M83.2810 75.6548
L83.1857 75.6548
" />
<path d="M83.9476 74.6548
L84.6143 74.6548
" />
<path d="M84.6143 74.6548
L84.1857 75.6548
" />
</g><text x="83.9500" y="63.7000"
textLength="1.9643" font-size="1.3333" lengthAdjust="spacingAndGlyphs"
text-anchor="middle" opacity="0">J6</text>
<g class="stroked-text"><desc>J6</desc>
<path d="M83.6167 62.6548
L83.6167 63.3691
" />
<path d="M83.6167 63.3691
L83.5690 63.5120
" />
<path d="M83.5690 63.5120
L83.4738 63.6072
" />
<path d="M83.4738 63.6072
L83.3310 63.6548
" />
<path d="M83.3310 63.6548
L83.2357 63.6548
" />
<path d="M84.5214 62.6548
L84.3310 62.6548
" />
<path d="M84.3310 62.6548
L84.2357 62.7024
" />
<path d="M84.2357 62.7024
L84.1881 62.7501
" />
<path d="M84.1881 62.7501
L84.0929 62.8929
" />
<path d="M84.0929 62.8929
L84.0452 63.0834
" />
<path d="M84.0452 63.0834
L84.0452 63.4643
" />
<path d="M84.0452 63.4643
L84.0929 63.5596
" />
<path d="M84.0929 63.5596
L84.1405 63.6072
" />
<path d="M84.1405 63.6072
L84.2357 63.6548
" />
<path d="M84.2357 63.6548
L84.4262 63.6548
" />
<path d="M84.4262 63.6548
L84.5214 63.6072
" />
<path d="M84.5214 63.6072
L84.5690 63.5596
" />
<path d="M84.5690 63.5596
L84.6167 63.4643
" />
<path d="M84.6167 63.4643
L84.6167 63.2262
" />
<path d="M84.6167 63.2262
L84.5690 63.1310
" />
<path d="M84.5690 63.1310
L84.5214 63.0834
" />
<path d="M84.5214 63.0834
L84.4262 63.0358
" />
<path d="M84.4262 63.0358
L84.2357 63.0358
" />
<path d="M84.2357 63.0358
L84.1405 63.0834
" />
<path d="M84.1405 63.0834
L84.0929 63.1310
" />
<path d="M84.0929 63.1310
L84.0452 63.2262
" />
</g><g transform="rotate(-90.000000 120.1000 41.6000)">
<text x="120.1000" y="42.1000"
textLength="2.9167" font-size="1.3333" lengthAdjust="spacingAndGlyphs"
text-anchor="middle" opacity="0">J10</text>
</g>
<g class="stroked-text"><desc>J10</desc>
<path d="M119.5548 42.4095
L120.2691 42.4095
" />
<path d="M120.2691 42.4095
L120.4120 42.4571
" />
<path d="M120.4120 42.4571
L120.5072 42.5524
" />
<path d="M120.5072 42.5524
L120.5548 42.6952
" />
<path d="M120.5548 42.6952
L120.5548 42.7905
" />
<path d="M120.5548 41.4095
L120.5548 41.9810
" />
<path d="M120.5548 41.6952
L119.5548 41.6952
" />
<path d="M119.5548 41.6952
L119.6977 41.7905
" />
<path d="M119.6977 41.7905
L119.7929 41.8857
" />
<path d="M119.7929 41.8857
L119.8405 41.9810
" />
<path d="M119.5548 40.7905
L119.5548 40.6952
" />
<path d="M119.5548 40.6952
L119.6024 40.6000
" />
<path d="M119.6024 40.6000
L119.6501 40.5524
" />
<path d="M119.6501 40.5524
L119.7453 40.5048
" />
<path d="M119.7453 40.5048
L119.9358 40.4571
" />
<path d="M119.9358 40.4571
L120.1739 40.4571
" />
<path d="M120.1739 40.4571
L120.3643 40.5048
" />
<path d="M120.3643 40.5048
L120.4596 40.5524
" />
<path d="M120.4596 40.5524
L120.5072 40.6000
" />
<path d="M120.5072 40.6000
L120.5548 40.6952
" />
<path d="M120.5548 40.6952
L120.5548 40.7905
" />
<path d="M120.5548 40.7905
L120.5072 40.8857
" />
<path d="M120.5072 40.8857
L120.4596 40.9333
" />
<path d="M120.4596 40.9333
L120.3643 40.9810
" />
<path d="M120.3643 40.9810
L120.1739 41.0286
" />
<path d="M120.1739 41.0286
L119.9358 41.0286
" />
<path d="M119.9358 41.0286
L119.7453 40.9810
" />
<path d="M119.7453 40.9810
L119.6501 40.9333
" />
<path d="M119.6501 40.9333
L119.6024 40.8857
" />
<path d="M119.6024 40.8857
L119.5548 40.7905
" />
</g><g transform="rotate(-90.000000 67.4400 60.5600)">
<text x="67.4400" y="61.0600"
textLength="3.0595" font-size="1.3333" lengthAdjust="spacingAndGlyphs"
text-anchor="middle" opacity="0">RV3</text>
</g>
<g class="stroked-text"><desc>RV3</desc>
<path d="M67.8948 61.1552
L67.4186 61.4886
" />
<path d="M67.8948 61.7267
L66.8948 61.7267
" />
<path d="M66.8948 61.7267
L66.8948 61.3457
" />
<path d="M66.8948 61.3457
L66.9424 61.2505
" />
<path d="M66.9424 61.2505
L66.9901 61.2029
" />
<path d="M66.9901 61.2029
L67.0853 61.1552
" />
<path d="M67.0853 61.1552
L67.2282 61.1552
" />
<path d="M67.2282 61.1552
L67.3234 61.2029
" />
<path d="M67.3234 61.2029
L67.3710 61.2505
" />
<path d="M67.3710 61.2505
L67.4186 61.3457
" />
<path d="M67.4186 61.3457
L67.4186 61.7267
" />
<path d="M66.8948 60.8695
L67.8948 60.5362
" />
<path d="M67.8948 60.5362
L66.8948 60.2029
" />
<path d="M66.8948 59.9648
L66.8948 59.3457
" />
<path d="M66.8948 59.3457
L67.2758 59.6790
" />
<path d="M67.2758 59.6790
L67.2758 59.5362
" />
<path d="M67.2758 59.5362
L67.3234 59.4410
" />
<path d="M67.3234 59.4410
L67.3710 59.3933
" />
<path d="M67.3710 59.3933
L67.4662 59.3457
" />
<path d="M67.4662 59.3457
L67.7043 59.3457
" />
<path d="M67.7043 59.3457
L67.7996 59.3933
" />
<path d="M67.7996 59.3933
L67.8472 59.4410
" />
<path d="M67.8472 59.4410
L67.8948 59.5362
" />
<path d="M67.8948 59.5362
L67.8948 59.8219
" />
<path d="M67.8948 59.8219
L67.8472 59.9171
" />
<path d="M67.8472 59.9171
L67.7996 59.9648
" />
</g><g transform="rotate(-90.000000 49.7000 60.6000)">
<text x="49.7000" y="61.1000"
textLength="1.9643" font-size="1.3333" lengthAdjust="spacingAndGlyphs"
text-anchor="middle" opacity="0">J1</text>
</g>
<g class="stroked-text"><desc>J1</desc>
<path d="M49.1548 60.9333
L49.8691 60.9333
" />
<path d="M49.8691 60.9333
L50.0120 60.9810
" />
<path d="M50.0120 60.9810
L50.1072 61.0762
" />
<path d="M50.1072 61.0762
L50.1548 61.2190
" />
<path d="M50.1548 61.2190
L50.1548 61.3143
" />
<path d="M50.1548 59.9333
L50.1548 60.5048
" />
<path d="M50.1548 60.2190
L49.1548 60.2190
" />
<path d="M49.1548 60.2190
L49.2977 60.3143
" />
<path d="M49.2977 60.3143
L49.3929 60.4095
" />
<path d="M49.3929 60.4095
L49.4405 60.5048
" />
</g><g transform="rotate(-90.000000 74.7400 56.0600)">
<text x="74.7400" y="56.5600"
textLength="3.0595" font-size="1.3333" lengthAdjust="spacingAndGlyphs"
text-anchor="middle" opacity="0">RV2</text>
</g>
<g class="stroked-text"><desc>RV2</desc>
<path d="M75.1948 56.6552
L74.7186 56.9886
" />
<path d="M75.1948 57.2267
L74.1948 57.2267
" />
<path d="M74.1948 57.2267
L74.1948 56.8457
" />
<path d="M74.1948 56.8457
L74.2424 56.7505
" />
<path d="M74.2424 56.7505
L74.2901 56.7029
" />
<path d="M74.2901 56.7029
L74.3853 56.6552
" />
<path d="M74.3853 56.6552
L74.5282 56.6552
" />
<path d="M74.5282 56.6552
L74.6234 56.7029
" />
<path d="M74.6234 56.7029
L74.6710 56.7505
" />
<path d="M74.6710 56.7505
L74.7186 56.8457
" />
<path d="M74.7186 56.8457
L74.7186 57.2267
" />
<path d="M74.1948 56.3695
L75.1948 56.0362
" />
<path d="M75.1948 56.0362
L74.1948 55.7029
" />
<path d="M74.2901 55.4171
L74.2424 55.3695
" />
<path d="M74.2424 55.3695
L74.1948 55.2743
" />
<path d="M74.1948 55.2743
L74.1948 55.0362
" />
<path d="M74.1948 55.0362
L74.2424 54.9410
" />
<path d="M74.2424 54.9410
L74.2901 54.8933
" />
<path d="M74.2901 54.8933
L74.3853 54.8457
" />
<path d="M74.3853 54.8457
L74.4805 54.8457
" />
<path d="M74.4805 54.8457
L74.6234 54.8933
" />
<path d="M74.6234 54.8933
L75.1948 55.4648
" />
<path d="M75.1948 55.4648
L75.1948 54.8457
" />
</g><text x="79.3500" y="63.7000"
textLength="1.9643" font-size="1.3333" lengthAdjust="spacingAndGlyphs"
text-anchor="middle" opacity="0">J8</text>
<g class="stroked-text"><desc>J8</desc>
<path d="M79.0167 62.6548
L79.0167 63.3691
" />
<path d="M79.0167 63.3691
L78.9690 63.5120
" />
<path d="M78.9690 63.5120
L78.8738 63.6072
" />
<path d="M78.8738 63.6072
L78.7310 63.6548
" />
<path d="M78.7310 63.6548
L78.6357 63.6548
" />
<path d="M79.6357 63.0834
L79.5405 63.0358
" />
<path d="M79.5405 63.0358
L79.4929 62.9882
" />
<path d="M79.4929 62.9882
L79.4452 62.8929
" />
<path d="M79.4452 62.8929
L79.4452 62.8453
" />
<path d="M79.4452 62.8453
L79.4929 62.7501
" />
<path d="M79.4929 62.7501
L79.5405 62.7024
" />
<path d="M79.5405 62.7024
L79.6357 62.6548
" />
<path d="M79.6357 62.6548
L79.8262 62.6548
" />
<path d="M79.8262 62.6548
L79.9214 62.7024
" />
<path d="M79.9214 62.7024
L79.9690 62.7501
" />
<path d="M79.9690 62.7501
L80.0167 62.8453
" />
<path d="M80.0167 62.8453
L80.0167 62.8929
" />
<path d="M80.0167 62.8929
L79.9690 62.9882
" />
<path d="M79.9690 62.9882
L79.9214 63.0358
" />
<path d="M79.9214 63.0358
L79.8262 63.0834
" />
<path d="M79.8262 63.0834
L79.6357 63.0834
" />
<path d="M79.6357 63.0834
L79.5405 63.1310
" />
<path d="M79.5405 63.1310
L79.4929 63.1786
" />
<path d="M79.4929 63.1786
L79.4452 63.2739
" />
<path d="M79.4452 63.2739
L79.4452 63.4643
" />
<path d="M79.4452 63.4643
L79.4929 63.5596
" />
<path d="M79.4929 63.5596
L79.5405 63.6072
" />
<path d="M79.5405 63.6072
L79.6357 63.6548
" />
<path d="M79.6357 63.6548
L79.8262 63.6548
" />
<path d="M79.8262 63.6548
L79.9214 63.6072
" />
<path d="M79.9214 63.6072
L79.9690 63.5596
" />
<path d="M79.9690 63.5596
L80.0167 63.4643
" />
<path d="M80.0167 63.4643
L80.0167 63.2739
" />
<path d="M80.0167 63.2739
L79.9690 63.1786
" />
<path d="M79.9690 63.1786
L79.9214 63.1310
" />
<path d="M79.9214 63.1310
L79.8262 63.0834
" />
</g><text x="79.4000" y="75.7000"
textLength="1.9643" font-size="1.3333" lengthAdjust="spacingAndGlyphs"
text-anchor="middle" opacity="0">J9</text>
<g class="stroked-text"><desc>J9</desc>
<path d="M79.0667 74.6548
L79.0667 75.3691
" />
<path d="M79.0667 75.3691
L79.0190 75.5120
" />
<path d="M79.0190 75.5120
L78.9238 75.6072
" />
<path d="M78.9238 75.6072
L78.7810 75.6548
" />
<path d="M78.7810 75.6548
L78.6857 75.6548
" />
<path d="M79.5905 75.6548
L79.7810 75.6548
" />
<path d="M79.7810 75.6548
L79.8762 75.6072
" />
<path d="M79.8762 75.6072
L79.9238 75.5596
" />
<path d="M79.9238 75.5596
L80.0190 75.4167
" />
<path d="M80.0190 75.4167
L80.0667 75.2262
" />
<path d="M80.0667 75.2262
L80.0667 74.8453
" />
<path d="M80.0667 74.8453
L80.0190 74.7501
" />
<path d="M80.0190 74.7501
L79.9714 74.7024
" />
<path d="M79.9714 74.7024
L79.8762 74.6548
" />
<path d="M79.8762 74.6548
L79.6857 74.6548
" />
<path d="M79.6857 74.6548
L79.5905 74.7024
" />
<path d="M79.5905 74.7024
L79.5429 74.7501
" />
<path d="M79.5429 74.7501
L79.4952 74.8453
" />
<path d="M79.4952 74.8453
L79.4952 75.0834
" />
<path d="M79.4952 75.0834
L79.5429 75.1786
" />
<path d="M79.5429 75.1786
L79.5905 75.2262
" />
<path d="M79.5905 75.2262
L79.6857 75.2739
" />
<path d="M79.6857 75.2739
L79.8762 75.2739
" />
<path d="M79.8762 75.2739
L79.9714 75.2262
" />
<path d="M79.9714 75.2262
L80.0190 75.1786
" />
<path d="M80.0190 75.1786
L80.0667 75.0834
" />
</g><g transform="rotate(-90.000000 132.1000 41.5000)">
<text x="132.1000" y="42.0000"
textLength="2.9167" font-size="1.3333" lengthAdjust="spacingAndGlyphs"
text-anchor="middle" opacity="0">J11</text>
</g>
<g class="stroked-text"><desc>J11</desc>
<path d="M131.5548 42.3095
L132.2691 42.3095
" />
<path d="M132.2691 42.3095
L132.4120 42.3571
" />
<path d="M132.4120 42.3571
L132.5072 42.4524
" />
<path d="M132.5072 42.4524
L132.5548 42.5952
" />
<path d="M132.5548 42.5952
L132.5548 42.6905
" />
<path d="M132.5548 41.3095
L132.5548 41.8810
" />
<path d="M132.5548 41.5952
L131.5548 41.5952
" />
<path d="M131.5548 41.5952
L131.6977 41.6905
" />
<path d="M131.6977 41.6905
L131.7929 41.7857
" />
<path d="M131.7929 41.7857
L131.8405 41.8810
" />
<path d="M132.5548 40.3571
L132.5548 40.9286
" />
<path d="M132.5548 40.6429
L131.5548 40.6429
" />
<path d="M131.5548 40.6429
L131.6977 40.7381
" />
<path d="M131.6977 40.7381
L131.7929 40.8333
" />
<path d="M131.7929 40.8333
L131.8405 40.9286
" />
</g><text x="93.3000" y="63.7000"
textLength="1.9643" font-size="1.3333" lengthAdjust="spacingAndGlyphs"
text-anchor="middle" opacity="0">J2</text>
<g class="stroked-text"><desc>J2</desc>
<path d="M92.9667 62.6548
L92.9667 63.3691
" />
<path d="M92.9667 63.3691
L92.9190 63.5120
" />
<path d="M92.9190 63.5120
L92.8238 63.6072
" />
<path d="M92.8238 63.6072
L92.6810 63.6548
" />
<path d="M92.6810 63.6548
L92.5857 63.6548
" />
<path d="M93.3952 62.7501
L93.4429 62.7024
" />
<path d="M93.4429 62.7024
L93.5381 62.6548
" />
<path d="M93.5381 62.6548
L93.7762 62.6548
" />
<path d="M93.7762 62.6548
L93.8714 62.7024
" />
<path d="M93.8714 62.7024
L93.9190 62.7501
" />
<path d="M93.9190 62.7501
L93.9667 62.8453
" />
<path d="M93.9667 62.8453
L93.9667 62.9405
" />
<path d="M93.9667 62.9405
L93.9190 63.0834
" />
<path d="M93.9190 63.0834
L93.3476 63.6548
" />
<path d="M93.3476 63.6548
L93.9667 63.6548
" />
</g><g transform="rotate(-90.000000 132.1000 45.7000)">
<text x="132.1000" y="46.2000"
textLength="2.9167" font-size="1.3333" lengthAdjust="spacingAndGlyphs"
text-anchor="middle" opacity="0">J13</text>
</g>
<g class="stroked-text"><desc>J13</desc>
<path d="M131.5548 46.5095
L132.2691 46.5095
" />
<path d="M132.2691 46.5095
L132.4120 46.5571
" />
<path d="M132.4120 46.5571
L132.5072 46.6524
" />
<path d="M132.5072 46.6524
L132.5548 46.7952
" />
<path d="M132.5548 46.7952
L132.5548 46.8905
" />
<path d="M132.5548 45.5095
L132.5548 46.0810
" />
<path d="M132.5548 45.7952
L131.5548 45.7952
" />
<path d="M131.5548 45.7952
L131.6977 45.8905
" />
<path d="M131.6977 45.8905
L131.7929 45.9857
" />
<path d="M131.7929 45.9857
L131.8405 46.0810
" />
<path d="M131.5548 45.1762
L131.5548 44.5571
" />
<path d="M131.5548 44.5571
L131.9358 44.8905
" />
<path d="M131.9358 44.8905
L131.9358 44.7476
" />
<path d="M131.9358 44.7476
L131.9834 44.6524
" />
<path d="M131.9834 44.6524
L132.0310 44.6048
" />
<path d="M132.0310 44.6048
L132.1262 44.5571
" />
<path d="M132.1262 44.5571
L132.3643 44.5571
" />
<path d="M132.3643 44.5571
L132.4596 44.6048
" />
<path d="M132.4596 44.6048
L132.5072 44.6524
" />
<path d="M132.5072 44.6524
L132.5548 44.7476
" />
<path d="M132.5548 44.7476
L132.5548 45.0333
" />
<path d="M132.5548 45.0333
L132.5072 45.1286
" />
<path d="M132.5072 45.1286
L132.4596 45.1762
" />
</g><g transform="rotate(-90.000000 82.0400 52.2600)">
<text x="82.0400" y="52.7600"
textLength="3.0595" font-size="1.3333" lengthAdjust="spacingAndGlyphs"
text-anchor="middle" opacity="0">RV1</text>
</g>
<g class="stroked-text"><desc>RV1</desc>
<path d="M82.4948 52.8552
L82.0186 53.1886
" />
<path d="M82.4948 53.4267
L81.4948 53.4267
" />
<path d="M81.4948 53.4267
L81.4948 53.0457
" />
<path d="M81.4948 53.0457
L81.5424 52.9505
" />
<path d="M81.5424 52.9505
L81.5901 52.9029
" />
<path d="M81.5901 52.9029
L81.6853 52.8552
" />
<path d="M81.6853 52.8552
L81.8282 52.8552
" />
<path d="M81.8282 52.8552
L81.9234 52.9029
" />
<path d="M81.9234 52.9029
L81.9710 52.9505
" />
<path d="M81.9710 52.9505
L82.0186 53.0457
" />
<path d="M82.0186 53.0457
L82.0186 53.4267
" />
<path d="M81.4948 52.5695
L82.4948 52.2362
" />
<path d="M82.4948 52.2362
L81.4948 51.9029
" />
<path d="M82.4948 51.0457
L82.4948 51.6171
" />
<path d="M82.4948 51.3314
L81.4948 51.3314
" />
<path d="M81.4948 51.3314
L81.6377 51.4267
" />
<path d="M81.6377 51.4267
L81.7329 51.5219
" />
<path d="M81.7329 51.5219
L81.7805 51.6171
" />
</g></g>
<g style="fill:none; 
stroke:#000000; stroke-width:0.1200; stroke-opacity:1; 
stroke-linecap:round; stroke-linejoin:round;">
<path d="M121.4700 44.4300
L121.4700 44.3700
" />
<path d="M124.1300 44.3700
L121.4700 44.3700
" />
<path d="M124.1300 44.4300
L121.4700 44.4300
" />
<path d="M124.1300 44.4300
L124.1300 44.3700
" />
<path d="M124.1300 45.7000
L124.1300 47.0300
" />
<path d="M124.1300 47.0300
L122.8000 47.0300
" />
<path d="M87.3200 64.6300
L87.3200 64.5700
" />
<path d="M89.9800 64.5700
L87.3200 64.5700
" />
<path d="M89.9800 64.6300
L87.3200 64.6300
" />
<path d="M89.9800 64.6300
L89.9800 64.5700
" />
<path d="M89.9800 65.9000
L89.9800 67.2300
" />
<path d="M89.9800 67.2300
L88.6500 67.2300
" />
<path d="M87.2700 71.2300
L87.2700 71.1700
" />
<path d="M89.9300 71.1700
L87.2700 71.1700
" />
<path d="M89.9300 71.2300
L87.2700 71.2300
" />
<path d="M89.9300 71.2300
L89.9300 71.1700
" />
<path d="M89.9300 72.5000
L89.9300 73.8300
" />
<path d="M89.9300 73.8300
L88.6000 73.8300
" />
<path d="M91.9700 71.1300
L91.9700 71.0700
" />
<path d="M94.6300 71.0700
L91.9700 71.0700
" />
<path d="M94.6300 71.1300
L91.9700 71.1300
" />
<path d="M94.6300 71.1300
L94.6300 71.0700
" />
<path d="M94.6300 72.4000
L94.6300 73.7300
" />
<path d="M94.6300 73.7300
L93.3000 73.7300
" />
<path d="M82.5700 71.1300
L82.5700 71.0700
" />
<path d="M85.2300 71.0700
L82.5700 71.0700
" />
<path d="M85.2300 71.1300
L82.5700 71.1300
" />
<path d="M85.2300 71.1300
L85.2300 71.0700
" />
<path d="M85.2300 72.4000
L85.2300 73.7300
" />
<path d="M85.2300 73.7300
L83.9000 73.7300
" />
<path d="M82.6200 64.6300
L82.6200 64.5700
" />
<path d="M85.2800 64.5700
L82.6200 64.5700
" />
<path d="M85.2800 64.6300
L82.6200 64.6300
" />
<path d="M85.2800 64.6300
L85.2800 64.5700
" />
<path d="M85.2800 65.9000
L85.2800 67.2300
" />
<path d="M85.2800 67.2300
L83.9500 67.2300
" />
<path d="M121.4700 40.2300
L121.4700 40.1700
" />
<path d="M124.1300 40.1700
L121.4700 40.1700
" />
<path d="M124.1300 40.2300
L121.4700 40.2300
" />
<path d="M124.1300 40.2300
L124.1300 40.1700
" />
<path d="M124.1300 41.5000
L124.1300 42.8300
" />
<path d="M124.1300 42.8300
L122.8000 42.8300
" />
</g>
<g style="fill:none; 
stroke:#000000; stroke-width:0.1500; stroke-opacity:1; 
stroke-linecap:round; stroke-linejoin:round;">
<path d="M105.2700 68.1700
L105.2700 50.3900
" />
<path d="M135.7500 50.3900
L105.2700 50.3900
" />
<path d="M135.7500 50.3900
L135.7500 55.4700
" />
<path d="M135.7500 55.4700
L138.2900 55.4700
" />
<path d="M135.7500 63.0900
L135.7500 68.1700
" />
<path d="M135.7500 68.1700
L105.2700 68.1700
" />
<path d="M138.2900 55.4700
L138.2900 63.0900
" />
<path d="M138.2900 63.0900
L135.7500 63.0900
" />
</g>
<g style="fill:none; 
stroke:#000000; stroke-width:0.1200; stroke-opacity:1; 
stroke-linecap:round; stroke-linejoin:round;">
<path d="M68.5700 55.6750
L73.6400 55.6750
" />
<path d="M68.5700 65.4450
L68.5700 55.6750
" />
<path d="M68.5700 65.4450
L73.6400 65.4450
" />
<path d="M73.6400 65.4450
L73.6400 55.6750
" />
<path d="M49.3800 52.3600
L49.3800 53.3600
" />
<path d="M49.3800 53.3600
L50.3800 52.8600
" />
<path d="M50.3800 52.8600
L49.3800 52.3600
" />
<path d="M50.7700 47.6500
L59.8900 47.6500
" />
<path d="M50.7700 58.4300
L52.0800 58.4300
" />
<path d="M50.7700 73.3100
L50.7700 47.6500
" />
<path d="M52.0800 48.9500
L58.5800 48.9500
" />
<path d="M52.0800 58.4300
L52.0800 48.9500
" />
<path d="M52.0800 62.5300
L50.7700 62.5300
" />
</g>
<g style="fill:#000000; fill-opacity:1.0000; stroke:none;">
<circle cx="52.0800" cy="62.5300" r="0.0600" /> 
</g>
<g style="fill:none; 
stroke:#000000; stroke-width:0.1200; stroke-opacity:1; 
stroke-linecap:round; stroke-linejoin:round;">
<path d="M52.0800 72.0100
L52.0800 62.5300
" />
<path d="M58.5800 48.9500
L58.5800 72.0100
" />
<path d="M58.5800 72.0100
L52.0800 72.0100
" />
<path d="M59.8900 47.6500
L59.8900 73.3100
" />
<path d="M59.8900 73.3100
L50.7700 73.3100
" />
<path d="M75.8700 51.1750
L80.9400 51.1750
" />
<path d="M75.8700 60.9450
L75.8700 51.1750
" />
<path d="M75.8700 60.9450
L80.9400 60.9450
" />
<path d="M80.9400 60.9450
L80.9400 51.1750
" />
<path d="M78.0200 64.6300
L78.0200 64.5700
" />
<path d="M80.6800 64.5700
L78.0200 64.5700
" />
<path d="M80.6800 64.6300
L78.0200 64.6300
" />
<path d="M80.6800 64.6300
L80.6800 64.5700
" />
<path d="M80.6800 65.9000
L80.6800 67.2300
" />
<path d="M80.6800 67.2300
L79.3500 67.2300
" />
<path d="M78.0700 71.1300
L78.0700 71.0700
" />
<path d="M80.7300 71.0700
L78.0700 71.0700
" />
<path d="M80.7300 71.1300
L78.0700 71.1300
" />
<path d="M80.7300 71.1300
L80.7300 71.0700
" />
<path d="M80.7300 72.4000
L80.7300 73.7300
" />
<path d="M80.7300 73.7300
L79.4000 73.7300
" />
<path d="M127.9700 40.2300
L127.9700 40.1700
" />
<path d="M130.6300 40.1700
L127.9700 40.1700
" />
<path d="M130.6300 40.2300
L127.9700 40.2300
" />
<path d="M130.6300 40.2300
L130.6300 40.1700
" />
<path d="M130.6300 41.5000
L130.6300 42.8300
" />
<path d="M130.6300 42.8300
L129.3000 42.8300
" />
<path d="M91.9700 64.6300
L91.9700 64.5700
" />
<path d="M94.6300 64.5700
L91.9700 64.5700
" />
<path d="M94.6300 64.6300
L91.9700 64.6300
" />
<path d="M94.6300 64.6300
L94.6300 64.5700
" />
<path d="M94.6300 65.9000
L94.6300 67.2300
" />
<path d="M94.6300 67.2300
L93.3000 67.2300
" />
<path d="M127.9700 44.4300
L127.9700 44.3700
" />
<path d="M130.6300 44.3700
L127.9700 44.3700
" />
<path d="M130.6300 44.4300
L127.9700 44.4300
" />
<path d="M130.6300 44.4300
L130.6300 44.3700
" />
<path d="M130.6300 45.7000
L130.6300 47.0300
" />
<path d="M130.6300 47.0300
L129.3000 47.0300
" />
<path d="M83.1700 47.3750
L88.2400 47.3750
" />
<path d="M83.1700 57.1450
L83.1700 47.3750
" />
<path d="M83.1700 57.1450
L88.2400 57.1450
" />
<path d="M88.2400 57.1450
L88.2400 47.3750
" />
<path style="fill:#000000; fill-opacity:1.0000; stroke:none;fill-rule:evenodd;"
d="M 135.2800,50.8600
135.2800,52.4600
133.6800,52.4600
133.6800,50.8600
Z" /> 
</g>
<g style="fill:#000000; fill-opacity:1.0000; stroke:none;">
<circle cx="131.9400" cy="51.6600" r="0.8000" /> 
</g>
<g style="fill:#000000; fill-opacity:1.0000; stroke:none;">
<circle cx="129.4000" cy="51.6600" r="0.8000" /> 
</g>
<g style="fill:#000000; fill-opacity:1.0000; stroke:none;">
<circle cx="126.8600" cy="51.6600" r="0.8000" /> 
</g>
<g style="fill:#000000; fill-opacity:1.0000; stroke:none;">
<circle cx="124.3200" cy="51.6600" r="0.8000" /> 
</g>
<g style="fill:#000000; fill-opacity:1.0000; stroke:none;">
<circle cx="121.7800" cy="51.6600" r="0.8000" /> 
</g>
<g style="fill:#000000; fill-opacity:1.0000; stroke:none;">
<circle cx="119.2400" cy="51.6600" r="0.8000" /> 
</g>
<g style="fill:#000000; fill-opacity:1.0000; stroke:none;">
<circle cx="116.7000" cy="51.6600" r="0.8000" /> 
</g>
<g style="fill:#000000; fill-opacity:1.0000; stroke:none;">
<circle cx="114.1600" cy="51.6600" r="0.8000" /> 
</g>
<g style="fill:#000000; fill-opacity:1.0000; stroke:none;">
<circle cx="111.6200" cy="51.6600" r="0.8000" /> 
</g>
<g style="fill:#000000; fill-opacity:1.0000; stroke:none;">
<circle cx="109.0800" cy="51.6600" r="0.8000" /> 
</g>
<g style="fill:#000000; fill-opacity:1.0000; stroke:none;">
<circle cx="106.5400" cy="51.6600" r="0.8000" /> 
</g>
<g style="fill:#000000; fill-opacity:1.0000; stroke:none;">
<circle cx="106.5400" cy="66.9000" r="0.8000" /> 
</g>
<g style="fill:#000000; fill-opacity:1.0000; stroke:none;">
<circle cx="109.0800" cy="66.9000" r="0.8000" /> 
</g>
<g style="fill:#000000; fill-opacity:1.0000; stroke:none;">
<circle cx="111.6200" cy="66.9000" r="0.8000" /> 
</g>
<g style="fill:#000000; fill-opacity:1.0000; stroke:none;">
<circle cx="114.1600" cy="66.9000" r="0.8000" /> 
</g>
<g style="fill:#000000; fill-opacity:1.0000; stroke:none;">
<circle cx="116.7000" cy="66.9000" r="0.8000" /> 
</g>
<g style="fill:#000000; fill-opacity:1.0000; stroke:none;">
<circle cx="119.2400" cy="66.9000" r="0.8000" /> 
</g>
<g style="fill:#000000; fill-opacity:1.0000; stroke:none;">
<circle cx="121.7800" cy="66.9000" r="0.8000" /> 
</g>
<g style="fill:#000000; fill-opacity:1.0000; stroke:none;">
<circle cx="124.3200" cy="66.9000" r="0.8000" /> 
</g>
<g style="fill:#000000; fill-opacity:1.0000; stroke:none;">
<circle cx="126.8600" cy="66.9000" r="0.8000" /> 
</g>
<g style="fill:#000000; fill-opacity:1.0000; stroke:none;">
<circle cx="129.4000" cy="66.9000" r="0.8000" /> 
</g>
<g style="fill:#000000; fill-opacity:1.0000; stroke:none;">
<circle cx="131.9400" cy="66.9000" r="0.8000" /> 
</g>
<g style="fill:#000000; fill-opacity:1.0000; stroke:none;">
<circle cx="134.4800" cy="66.9000" r="0.8000" /> 
</g> 
</svg>
